ISO-10303-21;
HEADER;
/* Generated by software containing ST-Developer
 * from STEP Tools, Inc. (www.steptools.com) 
 */

FILE_DESCRIPTION(
/* description */ (''),
/* implementation_level */ '2;1');

FILE_NAME(
/* name */ 'Inspection_box.step',
/* time_stamp */ '2026-09-06T12:58:48+05:30',
/* author */ (''),
/* organization */ (''),
/* preprocessor_version */ 'ST-DEVELOPER v20.2',
/* originating_system */ 'Autodesk Translation Framework v15.15.0.0',
/* authorisation */ '');

FILE_SCHEMA (('AUTOMOTIVE_DESIGN { 1 0 10303 214 3 1 1 }'));
ENDSEC;

DATA;
#10=MECHANICAL_DESIGN_GEOMETRIC_PRESENTATION_REPRESENTATION('',(#13),#774);
#11=SHAPE_REPRESENTATION_RELATIONSHIP('SRR','None',#781,#12);
#12=ADVANCED_BREP_SHAPE_REPRESENTATION('',(#14),#773);
#13=STYLED_ITEM('',(#791),#14);
#14=MANIFOLD_SOLID_BREP('Body1',#474);
#15=FACE_BOUND('',#79,.T.);
#16=FACE_BOUND('',#80,.T.);
#17=FACE_BOUND('',#81,.T.);
#18=FACE_BOUND('',#82,.T.);
#19=FACE_BOUND('',#83,.T.);
#20=FACE_BOUND('',#91,.T.);
#21=FACE_BOUND('',#92,.T.);
#22=FACE_BOUND('',#93,.T.);
#23=FACE_BOUND('',#94,.T.);
#24=FACE_BOUND('',#95,.T.);
#25=CIRCLE('',#499,1.59999999999999);
#26=CIRCLE('',#500,1.59999999999999);
#27=CIRCLE('',#502,1.6);
#28=CIRCLE('',#503,1.6);
#29=CIRCLE('',#505,1.6);
#30=CIRCLE('',#506,1.6);
#31=CIRCLE('',#508,1.6);
#32=CIRCLE('',#509,1.6);
#33=CIRCLE('',#511,17.5);
#34=CIRCLE('',#512,17.5);
#35=CYLINDRICAL_SURFACE('',#498,1.59999999999999);
#36=CYLINDRICAL_SURFACE('',#501,1.6);
#37=CYLINDRICAL_SURFACE('',#504,1.6);
#38=CYLINDRICAL_SURFACE('',#507,1.6);
#39=CYLINDRICAL_SURFACE('',#510,17.5);
#40=FACE_OUTER_BOUND('',#63,.T.);
#41=FACE_OUTER_BOUND('',#64,.T.);
#42=FACE_OUTER_BOUND('',#65,.T.);
#43=FACE_OUTER_BOUND('',#66,.T.);
#44=FACE_OUTER_BOUND('',#67,.T.);
#45=FACE_OUTER_BOUND('',#68,.T.);
#46=FACE_OUTER_BOUND('',#69,.T.);
#47=FACE_OUTER_BOUND('',#70,.T.);
#48=FACE_OUTER_BOUND('',#71,.T.);
#49=FACE_OUTER_BOUND('',#72,.T.);
#50=FACE_OUTER_BOUND('',#73,.T.);
#51=FACE_OUTER_BOUND('',#74,.T.);
#52=FACE_OUTER_BOUND('',#75,.T.);
#53=FACE_OUTER_BOUND('',#76,.T.);
#54=FACE_OUTER_BOUND('',#77,.T.);
#55=FACE_OUTER_BOUND('',#78,.T.);
#56=FACE_OUTER_BOUND('',#84,.T.);
#57=FACE_OUTER_BOUND('',#85,.T.);
#58=FACE_OUTER_BOUND('',#86,.T.);
#59=FACE_OUTER_BOUND('',#87,.T.);
#60=FACE_OUTER_BOUND('',#88,.T.);
#61=FACE_OUTER_BOUND('',#89,.T.);
#62=FACE_OUTER_BOUND('',#90,.T.);
#63=EDGE_LOOP('',(#307,#308,#309,#310));
#64=EDGE_LOOP('',(#311,#312,#313,#314));
#65=EDGE_LOOP('',(#315,#316,#317,#318));
#66=EDGE_LOOP('',(#319,#320,#321,#322));
#67=EDGE_LOOP('',(#323,#324,#325,#326));
#68=EDGE_LOOP('',(#327,#328,#329,#330));
#69=EDGE_LOOP('',(#331,#332,#333,#334,#335,#336,#337,#338));
#70=EDGE_LOOP('',(#339,#340,#341,#342,#343,#344,#345,#346));
#71=EDGE_LOOP('',(#347,#348,#349,#350,#351,#352,#353,#354));
#72=EDGE_LOOP('',(#355,#356,#357,#358,#359,#360,#361,#362));
#73=EDGE_LOOP('',(#363,#364,#365,#366));
#74=EDGE_LOOP('',(#367,#368,#369,#370));
#75=EDGE_LOOP('',(#371,#372,#373,#374));
#76=EDGE_LOOP('',(#375,#376,#377,#378));
#77=EDGE_LOOP('',(#379,#380,#381,#382));
#78=EDGE_LOOP('',(#383,#384,#385,#386));
#79=EDGE_LOOP('',(#387));
#80=EDGE_LOOP('',(#388));
#81=EDGE_LOOP('',(#389));
#82=EDGE_LOOP('',(#390));
#83=EDGE_LOOP('',(#391));
#84=EDGE_LOOP('',(#392,#393,#394,#395,#396,#397,#398,#399));
#85=EDGE_LOOP('',(#400,#401,#402,#403));
#86=EDGE_LOOP('',(#404,#405,#406,#407,#408,#409,#410,#411));
#87=EDGE_LOOP('',(#412,#413,#414,#415));
#88=EDGE_LOOP('',(#416,#417,#418,#419));
#89=EDGE_LOOP('',(#420,#421,#422,#423));
#90=EDGE_LOOP('',(#424,#425,#426,#427));
#91=EDGE_LOOP('',(#428));
#92=EDGE_LOOP('',(#429));
#93=EDGE_LOOP('',(#430));
#94=EDGE_LOOP('',(#431));
#95=EDGE_LOOP('',(#432));
#96=LINE('',#646,#149);
#97=LINE('',#648,#150);
#98=LINE('',#650,#151);
#99=LINE('',#651,#152);
#100=LINE('',#654,#153);
#101=LINE('',#656,#154);
#102=LINE('',#657,#155);
#103=LINE('',#661,#156);
#104=LINE('',#663,#157);
#105=LINE('',#665,#158);
#106=LINE('',#666,#159);
#107=LINE('',#669,#160);
#108=LINE('',#671,#161);
#109=LINE('',#672,#162);
#110=LINE('',#676,#163);
#111=LINE('',#678,#164);
#112=LINE('',#680,#165);
#113=LINE('',#681,#166);
#114=LINE('',#683,#167);
#115=LINE('',#684,#168);
#116=LINE('',#687,#169);
#117=LINE('',#689,#170);
#118=LINE('',#691,#171);
#119=LINE('',#693,#172);
#120=LINE('',#694,#173);
#121=LINE('',#697,#174);
#122=LINE('',#699,#175);
#123=LINE('',#700,#176);
#124=LINE('',#702,#177);
#125=LINE('',#703,#178);
#126=LINE('',#706,#179);
#127=LINE('',#707,#180);
#128=LINE('',#709,#181);
#129=LINE('',#711,#182);
#130=LINE('',#712,#183);
#131=LINE('',#715,#184);
#132=LINE('',#717,#185);
#133=LINE('',#718,#186);
#134=LINE('',#723,#187);
#135=LINE('',#729,#188);
#136=LINE('',#735,#189);
#137=LINE('',#741,#190);
#138=LINE('',#747,#191);
#139=LINE('',#752,#192);
#140=LINE('',#754,#193);
#141=LINE('',#756,#194);
#142=LINE('',#757,#195);
#143=LINE('',#759,#196);
#144=LINE('',#760,#197);
#145=LINE('',#762,#198);
#146=LINE('',#764,#199);
#147=LINE('',#767,#200);
#148=LINE('',#769,#201);
#149=VECTOR('',#525,10.);
#150=VECTOR('',#526,10.);
#151=VECTOR('',#527,10.);
#152=VECTOR('',#528,10.);
#153=VECTOR('',#531,10.);
#154=VECTOR('',#532,10.);
#155=VECTOR('',#533,10.);
#156=VECTOR('',#536,10.);
#157=VECTOR('',#537,10.);
#158=VECTOR('',#538,10.);
#159=VECTOR('',#539,10.);
#160=VECTOR('',#542,10.);
#161=VECTOR('',#543,10.);
#162=VECTOR('',#544,10.);
#163=VECTOR('',#547,10.);
#164=VECTOR('',#548,10.);
#165=VECTOR('',#549,10.);
#166=VECTOR('',#550,10.);
#167=VECTOR('',#553,10.);
#168=VECTOR('',#554,10.);
#169=VECTOR('',#557,10.);
#170=VECTOR('',#558,10.);
#171=VECTOR('',#559,10.);
#172=VECTOR('',#560,10.);
#173=VECTOR('',#561,10.);
#174=VECTOR('',#564,10.);
#175=VECTOR('',#565,10.);
#176=VECTOR('',#566,10.);
#177=VECTOR('',#567,10.);
#178=VECTOR('',#568,10.);
#179=VECTOR('',#571,10.);
#180=VECTOR('',#572,10.);
#181=VECTOR('',#573,10.);
#182=VECTOR('',#574,10.);
#183=VECTOR('',#575,10.);
#184=VECTOR('',#578,10.);
#185=VECTOR('',#579,10.);
#186=VECTOR('',#580,10.);
#187=VECTOR('',#585,1.59999999999999);
#188=VECTOR('',#592,1.6);
#189=VECTOR('',#599,1.6);
#190=VECTOR('',#606,1.6);
#191=VECTOR('',#613,17.5);
#192=VECTOR('',#618,10.);
#193=VECTOR('',#619,10.);
#194=VECTOR('',#620,10.);
#195=VECTOR('',#621,10.);
#196=VECTOR('',#624,10.);
#197=VECTOR('',#625,10.);
#198=VECTOR('',#628,10.);
#199=VECTOR('',#631,10.);
#200=VECTOR('',#636,10.);
#201=VECTOR('',#639,10.);
#202=VERTEX_POINT('',#644);
#203=VERTEX_POINT('',#645);
#204=VERTEX_POINT('',#647);
#205=VERTEX_POINT('',#649);
#206=VERTEX_POINT('',#653);
#207=VERTEX_POINT('',#655);
#208=VERTEX_POINT('',#659);
#209=VERTEX_POINT('',#660);
#210=VERTEX_POINT('',#662);
#211=VERTEX_POINT('',#664);
#212=VERTEX_POINT('',#668);
#213=VERTEX_POINT('',#670);
#214=VERTEX_POINT('',#674);
#215=VERTEX_POINT('',#675);
#216=VERTEX_POINT('',#677);
#217=VERTEX_POINT('',#679);
#218=VERTEX_POINT('',#686);
#219=VERTEX_POINT('',#688);
#220=VERTEX_POINT('',#690);
#221=VERTEX_POINT('',#692);
#222=VERTEX_POINT('',#696);
#223=VERTEX_POINT('',#698);
#224=VERTEX_POINT('',#701);
#225=VERTEX_POINT('',#705);
#226=VERTEX_POINT('',#708);
#227=VERTEX_POINT('',#710);
#228=VERTEX_POINT('',#714);
#229=VERTEX_POINT('',#716);
#230=VERTEX_POINT('',#720);
#231=VERTEX_POINT('',#722);
#232=VERTEX_POINT('',#726);
#233=VERTEX_POINT('',#728);
#234=VERTEX_POINT('',#732);
#235=VERTEX_POINT('',#734);
#236=VERTEX_POINT('',#738);
#237=VERTEX_POINT('',#740);
#238=VERTEX_POINT('',#744);
#239=VERTEX_POINT('',#746);
#240=VERTEX_POINT('',#750);
#241=VERTEX_POINT('',#751);
#242=VERTEX_POINT('',#753);
#243=VERTEX_POINT('',#755);
#244=EDGE_CURVE('',#202,#203,#96,.T.);
#245=EDGE_CURVE('',#202,#204,#97,.T.);
#246=EDGE_CURVE('',#205,#204,#98,.T.);
#247=EDGE_CURVE('',#203,#205,#99,.T.);
#248=EDGE_CURVE('',#206,#202,#100,.T.);
#249=EDGE_CURVE('',#207,#206,#101,.T.);
#250=EDGE_CURVE('',#204,#207,#102,.T.);
#251=EDGE_CURVE('',#208,#209,#103,.T.);
#252=EDGE_CURVE('',#210,#208,#104,.T.);
#253=EDGE_CURVE('',#211,#210,#105,.T.);
#254=EDGE_CURVE('',#209,#211,#106,.T.);
#255=EDGE_CURVE('',#203,#212,#107,.T.);
#256=EDGE_CURVE('',#213,#205,#108,.T.);
#257=EDGE_CURVE('',#212,#213,#109,.T.);
#258=EDGE_CURVE('',#214,#215,#110,.T.);
#259=EDGE_CURVE('',#216,#214,#111,.T.);
#260=EDGE_CURVE('',#217,#216,#112,.T.);
#261=EDGE_CURVE('',#217,#215,#113,.T.);
#262=EDGE_CURVE('',#215,#208,#114,.T.);
#263=EDGE_CURVE('',#210,#217,#115,.T.);
#264=EDGE_CURVE('',#218,#216,#116,.T.);
#265=EDGE_CURVE('',#218,#219,#117,.T.);
#266=EDGE_CURVE('',#220,#219,#118,.T.);
#267=EDGE_CURVE('',#221,#220,#119,.T.);
#268=EDGE_CURVE('',#211,#221,#120,.T.);
#269=EDGE_CURVE('',#214,#222,#121,.T.);
#270=EDGE_CURVE('',#222,#223,#122,.T.);
#271=EDGE_CURVE('',#223,#212,#123,.T.);
#272=EDGE_CURVE('',#213,#224,#124,.T.);
#273=EDGE_CURVE('',#224,#218,#125,.T.);
#274=EDGE_CURVE('',#221,#225,#126,.T.);
#275=EDGE_CURVE('',#225,#207,#127,.T.);
#276=EDGE_CURVE('',#206,#226,#128,.T.);
#277=EDGE_CURVE('',#226,#227,#129,.T.);
#278=EDGE_CURVE('',#227,#209,#130,.T.);
#279=EDGE_CURVE('',#225,#228,#131,.T.);
#280=EDGE_CURVE('',#229,#228,#132,.T.);
#281=EDGE_CURVE('',#224,#229,#133,.T.);
#282=EDGE_CURVE('',#230,#230,#25,.T.);
#283=EDGE_CURVE('',#230,#231,#134,.T.);
#284=EDGE_CURVE('',#231,#231,#26,.T.);
#285=EDGE_CURVE('',#232,#232,#27,.T.);
#286=EDGE_CURVE('',#232,#233,#135,.T.);
#287=EDGE_CURVE('',#233,#233,#28,.T.);
#288=EDGE_CURVE('',#234,#234,#29,.T.);
#289=EDGE_CURVE('',#234,#235,#136,.T.);
#290=EDGE_CURVE('',#235,#235,#30,.T.);
#291=EDGE_CURVE('',#236,#236,#31,.T.);
#292=EDGE_CURVE('',#236,#237,#137,.T.);
#293=EDGE_CURVE('',#237,#237,#32,.T.);
#294=EDGE_CURVE('',#238,#238,#33,.T.);
#295=EDGE_CURVE('',#238,#239,#138,.T.);
#296=EDGE_CURVE('',#239,#239,#34,.T.);
#297=EDGE_CURVE('',#240,#241,#139,.T.);
#298=EDGE_CURVE('',#241,#242,#140,.T.);
#299=EDGE_CURVE('',#242,#243,#141,.T.);
#300=EDGE_CURVE('',#243,#240,#142,.T.);
#301=EDGE_CURVE('',#223,#240,#143,.T.);
#302=EDGE_CURVE('',#243,#226,#144,.T.);
#303=EDGE_CURVE('',#242,#227,#145,.T.);
#304=EDGE_CURVE('',#241,#222,#146,.T.);
#305=EDGE_CURVE('',#219,#229,#147,.T.);
#306=EDGE_CURVE('',#228,#220,#148,.T.);
#307=ORIENTED_EDGE('',*,*,#244,.F.);
#308=ORIENTED_EDGE('',*,*,#245,.T.);
#309=ORIENTED_EDGE('',*,*,#246,.F.);
#310=ORIENTED_EDGE('',*,*,#247,.F.);
#311=ORIENTED_EDGE('',*,*,#248,.F.);
#312=ORIENTED_EDGE('',*,*,#249,.F.);
#313=ORIENTED_EDGE('',*,*,#250,.F.);
#314=ORIENTED_EDGE('',*,*,#245,.F.);
#315=ORIENTED_EDGE('',*,*,#251,.F.);
#316=ORIENTED_EDGE('',*,*,#252,.F.);
#317=ORIENTED_EDGE('',*,*,#253,.F.);
#318=ORIENTED_EDGE('',*,*,#254,.F.);
#319=ORIENTED_EDGE('',*,*,#255,.F.);
#320=ORIENTED_EDGE('',*,*,#247,.T.);
#321=ORIENTED_EDGE('',*,*,#256,.F.);
#322=ORIENTED_EDGE('',*,*,#257,.F.);
#323=ORIENTED_EDGE('',*,*,#258,.F.);
#324=ORIENTED_EDGE('',*,*,#259,.F.);
#325=ORIENTED_EDGE('',*,*,#260,.F.);
#326=ORIENTED_EDGE('',*,*,#261,.T.);
#327=ORIENTED_EDGE('',*,*,#262,.F.);
#328=ORIENTED_EDGE('',*,*,#261,.F.);
#329=ORIENTED_EDGE('',*,*,#263,.F.);
#330=ORIENTED_EDGE('',*,*,#252,.T.);
#331=ORIENTED_EDGE('',*,*,#253,.T.);
#332=ORIENTED_EDGE('',*,*,#263,.T.);
#333=ORIENTED_EDGE('',*,*,#260,.T.);
#334=ORIENTED_EDGE('',*,*,#264,.F.);
#335=ORIENTED_EDGE('',*,*,#265,.T.);
#336=ORIENTED_EDGE('',*,*,#266,.F.);
#337=ORIENTED_EDGE('',*,*,#267,.F.);
#338=ORIENTED_EDGE('',*,*,#268,.F.);
#339=ORIENTED_EDGE('',*,*,#259,.T.);
#340=ORIENTED_EDGE('',*,*,#269,.T.);
#341=ORIENTED_EDGE('',*,*,#270,.T.);
#342=ORIENTED_EDGE('',*,*,#271,.T.);
#343=ORIENTED_EDGE('',*,*,#257,.T.);
#344=ORIENTED_EDGE('',*,*,#272,.T.);
#345=ORIENTED_EDGE('',*,*,#273,.T.);
#346=ORIENTED_EDGE('',*,*,#264,.T.);
#347=ORIENTED_EDGE('',*,*,#254,.T.);
#348=ORIENTED_EDGE('',*,*,#268,.T.);
#349=ORIENTED_EDGE('',*,*,#274,.T.);
#350=ORIENTED_EDGE('',*,*,#275,.T.);
#351=ORIENTED_EDGE('',*,*,#249,.T.);
#352=ORIENTED_EDGE('',*,*,#276,.T.);
#353=ORIENTED_EDGE('',*,*,#277,.T.);
#354=ORIENTED_EDGE('',*,*,#278,.T.);
#355=ORIENTED_EDGE('',*,*,#256,.T.);
#356=ORIENTED_EDGE('',*,*,#246,.T.);
#357=ORIENTED_EDGE('',*,*,#250,.T.);
#358=ORIENTED_EDGE('',*,*,#275,.F.);
#359=ORIENTED_EDGE('',*,*,#279,.T.);
#360=ORIENTED_EDGE('',*,*,#280,.F.);
#361=ORIENTED_EDGE('',*,*,#281,.F.);
#362=ORIENTED_EDGE('',*,*,#272,.F.);
#363=ORIENTED_EDGE('',*,*,#282,.F.);
#364=ORIENTED_EDGE('',*,*,#283,.T.);
#365=ORIENTED_EDGE('',*,*,#284,.F.);
#366=ORIENTED_EDGE('',*,*,#283,.F.);
#367=ORIENTED_EDGE('',*,*,#285,.F.);
#368=ORIENTED_EDGE('',*,*,#286,.T.);
#369=ORIENTED_EDGE('',*,*,#287,.F.);
#370=ORIENTED_EDGE('',*,*,#286,.F.);
#371=ORIENTED_EDGE('',*,*,#288,.F.);
#372=ORIENTED_EDGE('',*,*,#289,.T.);
#373=ORIENTED_EDGE('',*,*,#290,.F.);
#374=ORIENTED_EDGE('',*,*,#289,.F.);
#375=ORIENTED_EDGE('',*,*,#291,.F.);
#376=ORIENTED_EDGE('',*,*,#292,.T.);
#377=ORIENTED_EDGE('',*,*,#293,.F.);
#378=ORIENTED_EDGE('',*,*,#292,.F.);
#379=ORIENTED_EDGE('',*,*,#294,.F.);
#380=ORIENTED_EDGE('',*,*,#295,.T.);
#381=ORIENTED_EDGE('',*,*,#296,.F.);
#382=ORIENTED_EDGE('',*,*,#295,.F.);
#383=ORIENTED_EDGE('',*,*,#297,.T.);
#384=ORIENTED_EDGE('',*,*,#298,.T.);
#385=ORIENTED_EDGE('',*,*,#299,.T.);
#386=ORIENTED_EDGE('',*,*,#300,.T.);
#387=ORIENTED_EDGE('',*,*,#296,.T.);
#388=ORIENTED_EDGE('',*,*,#293,.T.);
#389=ORIENTED_EDGE('',*,*,#290,.T.);
#390=ORIENTED_EDGE('',*,*,#287,.T.);
#391=ORIENTED_EDGE('',*,*,#284,.T.);
#392=ORIENTED_EDGE('',*,*,#255,.T.);
#393=ORIENTED_EDGE('',*,*,#271,.F.);
#394=ORIENTED_EDGE('',*,*,#301,.T.);
#395=ORIENTED_EDGE('',*,*,#300,.F.);
#396=ORIENTED_EDGE('',*,*,#302,.T.);
#397=ORIENTED_EDGE('',*,*,#276,.F.);
#398=ORIENTED_EDGE('',*,*,#248,.T.);
#399=ORIENTED_EDGE('',*,*,#244,.T.);
#400=ORIENTED_EDGE('',*,*,#299,.F.);
#401=ORIENTED_EDGE('',*,*,#303,.T.);
#402=ORIENTED_EDGE('',*,*,#277,.F.);
#403=ORIENTED_EDGE('',*,*,#302,.F.);
#404=ORIENTED_EDGE('',*,*,#251,.T.);
#405=ORIENTED_EDGE('',*,*,#278,.F.);
#406=ORIENTED_EDGE('',*,*,#303,.F.);
#407=ORIENTED_EDGE('',*,*,#298,.F.);
#408=ORIENTED_EDGE('',*,*,#304,.T.);
#409=ORIENTED_EDGE('',*,*,#269,.F.);
#410=ORIENTED_EDGE('',*,*,#258,.T.);
#411=ORIENTED_EDGE('',*,*,#262,.T.);
#412=ORIENTED_EDGE('',*,*,#304,.F.);
#413=ORIENTED_EDGE('',*,*,#297,.F.);
#414=ORIENTED_EDGE('',*,*,#301,.F.);
#415=ORIENTED_EDGE('',*,*,#270,.F.);
#416=ORIENTED_EDGE('',*,*,#273,.F.);
#417=ORIENTED_EDGE('',*,*,#281,.T.);
#418=ORIENTED_EDGE('',*,*,#305,.F.);
#419=ORIENTED_EDGE('',*,*,#265,.F.);
#420=ORIENTED_EDGE('',*,*,#274,.F.);
#421=ORIENTED_EDGE('',*,*,#267,.T.);
#422=ORIENTED_EDGE('',*,*,#306,.F.);
#423=ORIENTED_EDGE('',*,*,#279,.F.);
#424=ORIENTED_EDGE('',*,*,#280,.T.);
#425=ORIENTED_EDGE('',*,*,#306,.T.);
#426=ORIENTED_EDGE('',*,*,#266,.T.);
#427=ORIENTED_EDGE('',*,*,#305,.T.);
#428=ORIENTED_EDGE('',*,*,#294,.T.);
#429=ORIENTED_EDGE('',*,*,#291,.T.);
#430=ORIENTED_EDGE('',*,*,#288,.T.);
#431=ORIENTED_EDGE('',*,*,#285,.T.);
#432=ORIENTED_EDGE('',*,*,#282,.T.);
#433=PLANE('',#488);
#434=PLANE('',#489);
#435=PLANE('',#490);
#436=PLANE('',#491);
#437=PLANE('',#492);
#438=PLANE('',#493);
#439=PLANE('',#494);
#440=PLANE('',#495);
#441=PLANE('',#496);
#442=PLANE('',#497);
#443=PLANE('',#513);
#444=PLANE('',#514);
#445=PLANE('',#515);
#446=PLANE('',#516);
#447=PLANE('',#517);
#448=PLANE('',#518);
#449=PLANE('',#519);
#450=PLANE('',#520);
#451=ADVANCED_FACE('',(#40),#433,.F.);
#452=ADVANCED_FACE('',(#41),#434,.F.);
#453=ADVANCED_FACE('',(#42),#435,.F.);
#454=ADVANCED_FACE('',(#43),#436,.F.);
#455=ADVANCED_FACE('',(#44),#437,.F.);
#456=ADVANCED_FACE('',(#45),#438,.F.);
#457=ADVANCED_FACE('',(#46),#439,.T.);
#458=ADVANCED_FACE('',(#47),#440,.F.);
#459=ADVANCED_FACE('',(#48),#441,.F.);
#460=ADVANCED_FACE('',(#49),#442,.T.);
#461=ADVANCED_FACE('',(#50),#35,.F.);
#462=ADVANCED_FACE('',(#51),#36,.F.);
#463=ADVANCED_FACE('',(#52),#37,.F.);
#464=ADVANCED_FACE('',(#53),#38,.F.);
#465=ADVANCED_FACE('',(#54),#39,.F.);
#466=ADVANCED_FACE('',(#55,#15,#16,#17,#18,#19),#443,.F.);
#467=ADVANCED_FACE('',(#56),#444,.F.);
#468=ADVANCED_FACE('',(#57),#445,.F.);
#469=ADVANCED_FACE('',(#58),#446,.F.);
#470=ADVANCED_FACE('',(#59),#447,.F.);
#471=ADVANCED_FACE('',(#60),#448,.T.);
#472=ADVANCED_FACE('',(#61),#449,.T.);
#473=ADVANCED_FACE('',(#62,#20,#21,#22,#23,#24),#450,.T.);
#474=CLOSED_SHELL('',(#451,#452,#453,#454,#455,#456,#457,#458,#459,#460,
#461,#462,#463,#464,#465,#466,#467,#468,#469,#470,#471,#472,#473));
#475=DERIVED_UNIT_ELEMENT(#477,1.);
#476=DERIVED_UNIT_ELEMENT(#776,-3.);
#477=(
MASS_UNIT()
NAMED_UNIT(*)
SI_UNIT(.KILO.,.GRAM.)
);
#478=DERIVED_UNIT((#475,#476));
#479=MEASURE_REPRESENTATION_ITEM('density measure',
POSITIVE_RATIO_MEASURE(7850.),#478);
#480=PROPERTY_DEFINITION_REPRESENTATION(#485,#482);
#481=PROPERTY_DEFINITION_REPRESENTATION(#486,#483);
#482=REPRESENTATION('material name',(#484),#773);
#483=REPRESENTATION('density',(#479),#773);
#484=DESCRIPTIVE_REPRESENTATION_ITEM('Steel','Steel');
#485=PROPERTY_DEFINITION('material property','material name',#783);
#486=PROPERTY_DEFINITION('material property','density of part',#783);
#487=AXIS2_PLACEMENT_3D('',#642,#521,#522);
#488=AXIS2_PLACEMENT_3D('',#643,#523,#524);
#489=AXIS2_PLACEMENT_3D('',#652,#529,#530);
#490=AXIS2_PLACEMENT_3D('',#658,#534,#535);
#491=AXIS2_PLACEMENT_3D('',#667,#540,#541);
#492=AXIS2_PLACEMENT_3D('',#673,#545,#546);
#493=AXIS2_PLACEMENT_3D('',#682,#551,#552);
#494=AXIS2_PLACEMENT_3D('',#685,#555,#556);
#495=AXIS2_PLACEMENT_3D('',#695,#562,#563);
#496=AXIS2_PLACEMENT_3D('',#704,#569,#570);
#497=AXIS2_PLACEMENT_3D('',#713,#576,#577);
#498=AXIS2_PLACEMENT_3D('',#719,#581,#582);
#499=AXIS2_PLACEMENT_3D('',#721,#583,#584);
#500=AXIS2_PLACEMENT_3D('',#724,#586,#587);
#501=AXIS2_PLACEMENT_3D('',#725,#588,#589);
#502=AXIS2_PLACEMENT_3D('',#727,#590,#591);
#503=AXIS2_PLACEMENT_3D('',#730,#593,#594);
#504=AXIS2_PLACEMENT_3D('',#731,#595,#596);
#505=AXIS2_PLACEMENT_3D('',#733,#597,#598);
#506=AXIS2_PLACEMENT_3D('',#736,#600,#601);
#507=AXIS2_PLACEMENT_3D('',#737,#602,#603);
#508=AXIS2_PLACEMENT_3D('',#739,#604,#605);
#509=AXIS2_PLACEMENT_3D('',#742,#607,#608);
#510=AXIS2_PLACEMENT_3D('',#743,#609,#610);
#511=AXIS2_PLACEMENT_3D('',#745,#611,#612);
#512=AXIS2_PLACEMENT_3D('',#748,#614,#615);
#513=AXIS2_PLACEMENT_3D('',#749,#616,#617);
#514=AXIS2_PLACEMENT_3D('',#758,#622,#623);
#515=AXIS2_PLACEMENT_3D('',#761,#626,#627);
#516=AXIS2_PLACEMENT_3D('',#763,#629,#630);
#517=AXIS2_PLACEMENT_3D('',#765,#632,#633);
#518=AXIS2_PLACEMENT_3D('',#766,#634,#635);
#519=AXIS2_PLACEMENT_3D('',#768,#637,#638);
#520=AXIS2_PLACEMENT_3D('',#770,#640,#641);
#521=DIRECTION('axis',(0.,0.,1.));
#522=DIRECTION('refdir',(1.,0.,0.));
#523=DIRECTION('center_axis',(0.,0.,1.));
#524=DIRECTION('ref_axis',(1.,0.,0.));
#525=DIRECTION('',(1.,0.,0.));
#526=DIRECTION('',(0.,1.,0.));
#527=DIRECTION('',(-1.,0.,0.));
#528=DIRECTION('',(0.,1.,0.));
#529=DIRECTION('center_axis',(-1.,0.,0.));
#530=DIRECTION('ref_axis',(0.,0.,1.));
#531=DIRECTION('',(0.,0.,1.));
#532=DIRECTION('',(0.,-1.,0.));
#533=DIRECTION('',(0.,0.,-1.));
#534=DIRECTION('center_axis',(-1.,0.,0.));
#535=DIRECTION('ref_axis',(0.,0.,1.));
#536=DIRECTION('',(0.,0.,-1.));
#537=DIRECTION('',(0.,1.,0.));
#538=DIRECTION('',(0.,0.,1.));
#539=DIRECTION('',(0.,-1.,0.));
#540=DIRECTION('center_axis',(1.,0.,0.));
#541=DIRECTION('ref_axis',(0.,0.,-1.));
#542=DIRECTION('',(0.,0.,-1.));
#543=DIRECTION('',(0.,0.,1.));
#544=DIRECTION('',(0.,1.,0.));
#545=DIRECTION('center_axis',(1.,0.,0.));
#546=DIRECTION('ref_axis',(0.,0.,-1.));
#547=DIRECTION('',(0.,0.,1.));
#548=DIRECTION('',(0.,1.,0.));
#549=DIRECTION('',(0.,0.,-1.));
#550=DIRECTION('',(0.,1.,0.));
#551=DIRECTION('center_axis',(0.,0.,1.));
#552=DIRECTION('ref_axis',(1.,0.,0.));
#553=DIRECTION('',(-1.,0.,0.));
#554=DIRECTION('',(1.,0.,0.));
#555=DIRECTION('center_axis',(0.,-1.,0.));
#556=DIRECTION('ref_axis',(1.,0.,0.));
#557=DIRECTION('',(-1.,0.,0.));
#558=DIRECTION('',(0.,0.,1.));
#559=DIRECTION('',(1.,0.,0.));
#560=DIRECTION('',(0.,0.,1.));
#561=DIRECTION('',(-1.,0.,0.));
#562=DIRECTION('center_axis',(0.,0.,1.));
#563=DIRECTION('ref_axis',(1.,0.,0.));
#564=DIRECTION('',(1.,0.,0.));
#565=DIRECTION('',(0.,1.,0.));
#566=DIRECTION('',(-1.,0.,0.));
#567=DIRECTION('',(1.,0.,0.));
#568=DIRECTION('',(0.,-1.,0.));
#569=DIRECTION('center_axis',(0.,0.,1.));
#570=DIRECTION('ref_axis',(1.,0.,0.));
#571=DIRECTION('',(0.,1.,0.));
#572=DIRECTION('',(1.,0.,0.));
#573=DIRECTION('',(-1.,0.,0.));
#574=DIRECTION('',(0.,-1.,0.));
#575=DIRECTION('',(1.,0.,0.));
#576=DIRECTION('center_axis',(0.,1.,0.));
#577=DIRECTION('ref_axis',(-1.,0.,0.));
#578=DIRECTION('',(0.,0.,1.));
#579=DIRECTION('',(-1.,0.,0.));
#580=DIRECTION('',(0.,0.,1.));
#581=DIRECTION('center_axis',(0.,0.,-1.));
#582=DIRECTION('ref_axis',(-1.,0.,0.));
#583=DIRECTION('center_axis',(0.,0.,-1.));
#584=DIRECTION('ref_axis',(-1.,0.,0.));
#585=DIRECTION('',(0.,0.,-1.));
#586=DIRECTION('center_axis',(0.,0.,1.));
#587=DIRECTION('ref_axis',(-1.,0.,0.));
#588=DIRECTION('center_axis',(0.,0.,-1.));
#589=DIRECTION('ref_axis',(-1.,0.,0.));
#590=DIRECTION('center_axis',(0.,0.,-1.));
#591=DIRECTION('ref_axis',(-1.,0.,0.));
#592=DIRECTION('',(0.,0.,-1.));
#593=DIRECTION('center_axis',(0.,0.,1.));
#594=DIRECTION('ref_axis',(-1.,0.,0.));
#595=DIRECTION('center_axis',(0.,0.,-1.));
#596=DIRECTION('ref_axis',(-1.,0.,0.));
#597=DIRECTION('center_axis',(0.,0.,-1.));
#598=DIRECTION('ref_axis',(-1.,0.,0.));
#599=DIRECTION('',(0.,0.,-1.));
#600=DIRECTION('center_axis',(0.,0.,1.));
#601=DIRECTION('ref_axis',(-1.,0.,0.));
#602=DIRECTION('center_axis',(0.,0.,-1.));
#603=DIRECTION('ref_axis',(-1.,0.,0.));
#604=DIRECTION('center_axis',(0.,0.,-1.));
#605=DIRECTION('ref_axis',(-1.,0.,0.));
#606=DIRECTION('',(0.,0.,-1.));
#607=DIRECTION('center_axis',(0.,0.,1.));
#608=DIRECTION('ref_axis',(-1.,0.,0.));
#609=DIRECTION('center_axis',(0.,0.,-1.));
#610=DIRECTION('ref_axis',(-1.,0.,0.));
#611=DIRECTION('center_axis',(0.,0.,-1.));
#612=DIRECTION('ref_axis',(-1.,0.,0.));
#613=DIRECTION('',(0.,0.,-1.));
#614=DIRECTION('center_axis',(0.,0.,1.));
#615=DIRECTION('ref_axis',(-1.,0.,0.));
#616=DIRECTION('center_axis',(0.,0.,1.));
#617=DIRECTION('ref_axis',(1.,0.,0.));
#618=DIRECTION('',(0.,-1.,0.));
#619=DIRECTION('',(-1.,0.,0.));
#620=DIRECTION('',(0.,1.,0.));
#621=DIRECTION('',(1.,0.,0.));
#622=DIRECTION('center_axis',(0.,1.,0.));
#623=DIRECTION('ref_axis',(-1.,0.,0.));
#624=DIRECTION('',(0.,0.,1.));
#625=DIRECTION('',(0.,0.,-1.));
#626=DIRECTION('center_axis',(-1.,0.,0.));
#627=DIRECTION('ref_axis',(0.,-1.,0.));
#628=DIRECTION('',(0.,0.,-1.));
#629=DIRECTION('center_axis',(0.,-1.,0.));
#630=DIRECTION('ref_axis',(1.,0.,0.));
#631=DIRECTION('',(0.,0.,-1.));
#632=DIRECTION('center_axis',(1.,0.,0.));
#633=DIRECTION('ref_axis',(0.,1.,0.));
#634=DIRECTION('center_axis',(1.,0.,0.));
#635=DIRECTION('ref_axis',(0.,1.,0.));
#636=DIRECTION('',(0.,1.,0.));
#637=DIRECTION('center_axis',(-1.,0.,0.));
#638=DIRECTION('ref_axis',(0.,-1.,0.));
#639=DIRECTION('',(0.,-1.,0.));
#640=DIRECTION('center_axis',(0.,0.,1.));
#641=DIRECTION('ref_axis',(1.,0.,0.));
#642=CARTESIAN_POINT('',(0.,0.,0.));
#643=CARTESIAN_POINT('Origin',(-25.,-42.5,5.));
#644=CARTESIAN_POINT('',(-25.,41.5,5.));
#645=CARTESIAN_POINT('',(25.,41.5,5.));
#646=CARTESIAN_POINT('',(25.,41.5,5.));
#647=CARTESIAN_POINT('',(-25.,42.5,5.));
#648=CARTESIAN_POINT('',(-25.,-42.5,5.));
#649=CARTESIAN_POINT('',(25.,42.5,5.));
#650=CARTESIAN_POINT('',(25.,42.5,5.));
#651=CARTESIAN_POINT('',(25.,-42.5,5.));
#652=CARTESIAN_POINT('Origin',(-25.,-42.5,0.));
#653=CARTESIAN_POINT('',(-25.,41.5,0.));
#654=CARTESIAN_POINT('',(-25.,41.5,0.));
#655=CARTESIAN_POINT('',(-25.,42.5,0.));
#656=CARTESIAN_POINT('',(-25.,-21.25,0.));
#657=CARTESIAN_POINT('',(-25.,42.5,0.));
#658=CARTESIAN_POINT('Origin',(-25.,-42.5,0.));
#659=CARTESIAN_POINT('',(-25.,-41.5,5.));
#660=CARTESIAN_POINT('',(-25.,-41.5,0.));
#661=CARTESIAN_POINT('',(-25.,-41.5,0.));
#662=CARTESIAN_POINT('',(-25.,-42.5,5.));
#663=CARTESIAN_POINT('',(-25.,-42.5,5.));
#664=CARTESIAN_POINT('',(-25.,-42.5,0.));
#665=CARTESIAN_POINT('',(-25.,-42.5,0.));
#666=CARTESIAN_POINT('',(-25.,-21.25,0.));
#667=CARTESIAN_POINT('Origin',(25.,-42.5,5.));
#668=CARTESIAN_POINT('',(25.,41.5,0.));
#669=CARTESIAN_POINT('',(25.,41.5,2.5));
#670=CARTESIAN_POINT('',(25.,42.5,0.));
#671=CARTESIAN_POINT('',(25.,42.5,2.5));
#672=CARTESIAN_POINT('',(25.,-21.25,0.));
#673=CARTESIAN_POINT('Origin',(25.,-42.5,5.));
#674=CARTESIAN_POINT('',(25.,-41.5,0.));
#675=CARTESIAN_POINT('',(25.,-41.5,5.));
#676=CARTESIAN_POINT('',(25.,-41.5,2.5));
#677=CARTESIAN_POINT('',(25.,-42.5,0.));
#678=CARTESIAN_POINT('',(25.,-21.25,0.));
#679=CARTESIAN_POINT('',(25.,-42.5,5.));
#680=CARTESIAN_POINT('',(25.,-42.5,2.5));
#681=CARTESIAN_POINT('',(25.,-42.5,5.));
#682=CARTESIAN_POINT('Origin',(-25.,-42.5,5.));
#683=CARTESIAN_POINT('',(-50.,-41.5,5.));
#684=CARTESIAN_POINT('',(-50.,-42.5,5.));
#685=CARTESIAN_POINT('Origin',(-75.,-42.5,0.));
#686=CARTESIAN_POINT('',(75.,-42.5,0.));
#687=CARTESIAN_POINT('',(75.,-42.5,0.));
#688=CARTESIAN_POINT('',(75.,-42.5,50.));
#689=CARTESIAN_POINT('',(75.,-42.5,0.));
#690=CARTESIAN_POINT('',(-75.,-42.5,50.));
#691=CARTESIAN_POINT('',(75.,-42.5,50.));
#692=CARTESIAN_POINT('',(-75.,-42.5,0.));
#693=CARTESIAN_POINT('',(-75.,-42.5,0.));
#694=CARTESIAN_POINT('',(75.,-42.5,0.));
#695=CARTESIAN_POINT('Origin',(0.,0.,0.));
#696=CARTESIAN_POINT('',(74.,-41.5,0.));
#697=CARTESIAN_POINT('',(75.,-41.5,0.));
#698=CARTESIAN_POINT('',(74.,41.5,0.));
#699=CARTESIAN_POINT('',(74.,42.5,0.));
#700=CARTESIAN_POINT('',(-75.,41.5,0.));
#701=CARTESIAN_POINT('',(75.,42.5,0.));
#702=CARTESIAN_POINT('',(-75.,42.5,0.));
#703=CARTESIAN_POINT('',(75.,42.5,0.));
#704=CARTESIAN_POINT('Origin',(0.,0.,0.));
#705=CARTESIAN_POINT('',(-75.,42.5,0.));
#706=CARTESIAN_POINT('',(-75.,-42.5,0.));
#707=CARTESIAN_POINT('',(-75.,42.5,0.));
#708=CARTESIAN_POINT('',(-74.,41.5,0.));
#709=CARTESIAN_POINT('',(-75.,41.5,0.));
#710=CARTESIAN_POINT('',(-74.,-41.5,0.));
#711=CARTESIAN_POINT('',(-74.,-42.5,0.));
#712=CARTESIAN_POINT('',(75.,-41.5,0.));
#713=CARTESIAN_POINT('Origin',(75.,42.5,0.));
#714=CARTESIAN_POINT('',(-75.,42.5,50.));
#715=CARTESIAN_POINT('',(-75.,42.5,0.));
#716=CARTESIAN_POINT('',(75.,42.5,50.));
#717=CARTESIAN_POINT('',(-75.,42.5,50.));
#718=CARTESIAN_POINT('',(75.,42.5,0.));
#719=CARTESIAN_POINT('Origin',(69.,36.5,50.));
#720=CARTESIAN_POINT('',(70.6,36.5,50.));
#721=CARTESIAN_POINT('Origin',(69.,36.5,50.));
#722=CARTESIAN_POINT('',(70.6,36.5,49.));
#723=CARTESIAN_POINT('',(70.6,36.5,50.));
#724=CARTESIAN_POINT('Origin',(69.,36.5,49.));
#725=CARTESIAN_POINT('Origin',(-69.,36.5,50.));
#726=CARTESIAN_POINT('',(-67.4,36.5,50.));
#727=CARTESIAN_POINT('Origin',(-69.,36.5,50.));
#728=CARTESIAN_POINT('',(-67.4,36.5,49.));
#729=CARTESIAN_POINT('',(-67.4,36.5,50.));
#730=CARTESIAN_POINT('Origin',(-69.,36.5,49.));
#731=CARTESIAN_POINT('Origin',(69.,-36.5,50.));
#732=CARTESIAN_POINT('',(70.6,-36.5,50.));
#733=CARTESIAN_POINT('Origin',(69.,-36.5,50.));
#734=CARTESIAN_POINT('',(70.6,-36.5,49.));
#735=CARTESIAN_POINT('',(70.6,-36.5,50.));
#736=CARTESIAN_POINT('Origin',(69.,-36.5,49.));
#737=CARTESIAN_POINT('Origin',(-69.,-36.5,50.));
#738=CARTESIAN_POINT('',(-67.4,-36.5,50.));
#739=CARTESIAN_POINT('Origin',(-69.,-36.5,50.));
#740=CARTESIAN_POINT('',(-67.4,-36.5,49.));
#741=CARTESIAN_POINT('',(-67.4,-36.5,50.));
#742=CARTESIAN_POINT('Origin',(-69.,-36.5,49.));
#743=CARTESIAN_POINT('Origin',(-50.,-17.5,50.));
#744=CARTESIAN_POINT('',(-32.5,-17.5,50.));
#745=CARTESIAN_POINT('Origin',(-50.,-17.5,50.));
#746=CARTESIAN_POINT('',(-32.5,-17.5,49.));
#747=CARTESIAN_POINT('',(-32.5,-17.5,50.));
#748=CARTESIAN_POINT('Origin',(-50.,-17.5,49.));
#749=CARTESIAN_POINT('Origin',(0.,0.,49.));
#750=CARTESIAN_POINT('',(74.,41.5,49.));
#751=CARTESIAN_POINT('',(74.,-41.5,49.));
#752=CARTESIAN_POINT('',(74.,-21.25,49.));
#753=CARTESIAN_POINT('',(-74.,-41.5,49.));
#754=CARTESIAN_POINT('',(-37.5,-41.5,49.));
#755=CARTESIAN_POINT('',(-74.,41.5,49.));
#756=CARTESIAN_POINT('',(-74.,21.25,49.));
#757=CARTESIAN_POINT('',(37.5,41.5,49.));
#758=CARTESIAN_POINT('Origin',(75.,41.5,0.));
#759=CARTESIAN_POINT('',(74.,41.5,0.));
#760=CARTESIAN_POINT('',(-74.,41.5,0.));
#761=CARTESIAN_POINT('Origin',(-74.,42.5,0.));
#762=CARTESIAN_POINT('',(-74.,-41.5,0.));
#763=CARTESIAN_POINT('Origin',(-75.,-41.5,0.));
#764=CARTESIAN_POINT('',(74.,-41.5,0.));
#765=CARTESIAN_POINT('Origin',(74.,-42.5,0.));
#766=CARTESIAN_POINT('Origin',(75.,-42.5,0.));
#767=CARTESIAN_POINT('',(75.,42.5,50.));
#768=CARTESIAN_POINT('Origin',(-75.,42.5,0.));
#769=CARTESIAN_POINT('',(-75.,-42.5,50.));
#770=CARTESIAN_POINT('Origin',(0.,0.,50.));
#771=UNCERTAINTY_MEASURE_WITH_UNIT(LENGTH_MEASURE(0.01),#775,
'DISTANCE_ACCURACY_VALUE',
'Maximum model space distance between geometric entities at asserted c
onnectivities');
#772=UNCERTAINTY_MEASURE_WITH_UNIT(LENGTH_MEASURE(0.01),#775,
'DISTANCE_ACCURACY_VALUE',
'Maximum model space distance between geometric entities at asserted c
onnectivities');
#773=(
GEOMETRIC_REPRESENTATION_CONTEXT(3)
GLOBAL_UNCERTAINTY_ASSIGNED_CONTEXT((#771))
GLOBAL_UNIT_ASSIGNED_CONTEXT((#775,#777,#778))
REPRESENTATION_CONTEXT('','3D')
);
#774=(
GEOMETRIC_REPRESENTATION_CONTEXT(3)
GLOBAL_UNCERTAINTY_ASSIGNED_CONTEXT((#772))
GLOBAL_UNIT_ASSIGNED_CONTEXT((#775,#777,#778))
REPRESENTATION_CONTEXT('','3D')
);
#775=(
LENGTH_UNIT()
NAMED_UNIT(*)
SI_UNIT(.MILLI.,.METRE.)
);
#776=(
LENGTH_UNIT()
NAMED_UNIT(*)
SI_UNIT($,.METRE.)
);
#777=(
NAMED_UNIT(*)
PLANE_ANGLE_UNIT()
SI_UNIT($,.RADIAN.)
);
#778=(
NAMED_UNIT(*)
SI_UNIT($,.STERADIAN.)
SOLID_ANGLE_UNIT()
);
#779=SHAPE_DEFINITION_REPRESENTATION(#780,#781);
#780=PRODUCT_DEFINITION_SHAPE('',$,#783);
#781=SHAPE_REPRESENTATION('',(#487),#773);
#782=PRODUCT_DEFINITION_CONTEXT('part definition',#787,'design');
#783=PRODUCT_DEFINITION('2026-09-05-15-00-23-697','Inspection_box',#784,
#782);
#784=PRODUCT_DEFINITION_FORMATION('',$,#789);
#785=PRODUCT_RELATED_PRODUCT_CATEGORY('Inspection_box','Inspection_box',
(#789));
#786=APPLICATION_PROTOCOL_DEFINITION('international standard',
'automotive_design',2009,#787);
#787=APPLICATION_CONTEXT(
'Core Data for Automotive Mechanical Design Process');
#788=PRODUCT_CONTEXT('part definition',#787,'mechanical');
#789=PRODUCT('2026-09-05-15-00-23-697','Inspection_box',$,(#788));
#790=PRESENTATION_STYLE_ASSIGNMENT((#792));
#791=PRESENTATION_STYLE_ASSIGNMENT((#793));
#792=SURFACE_STYLE_USAGE(.BOTH.,#794);
#793=SURFACE_STYLE_USAGE(.BOTH.,#795);
#794=SURFACE_SIDE_STYLE('',(#796));
#795=SURFACE_SIDE_STYLE('',(#797));
#796=SURFACE_STYLE_FILL_AREA(#798);
#797=SURFACE_STYLE_FILL_AREA(#799);
#798=FILL_AREA_STYLE('Steel - Satin',(#800));
#799=FILL_AREA_STYLE('Paint - Metallic (Black)',(#801));
#800=FILL_AREA_STYLE_COLOUR('Steel - Satin',#802);
#801=FILL_AREA_STYLE_COLOUR('Paint - Metallic (Black)',#803);
#802=COLOUR_RGB('Steel - Satin',0.627450980392157,0.627450980392157,0.627450980392157);
#803=COLOUR_RGB('Paint - Metallic (Black)',0.0980392156862745,0.0980392156862745,
0.0980392156862745);
ENDSEC;
END-ISO-10303-21;
