ISO-10303-21;
HEADER;
/* Generated by software containing ST-Developer
 * from STEP Tools, Inc. (www.steptools.com) 
 */

FILE_DESCRIPTION(
/* description */ (''),
/* implementation_level */ '2;1');

FILE_NAME(
/* name */ 'Phone Support.step',
/* time_stamp */ '2026-09-06T12:58:59+05:30',
/* author */ (''),
/* organization */ (''),
/* preprocessor_version */ 'ST-DEVELOPER v20.2',
/* originating_system */ 'Autodesk Translation Framework v15.15.0.0',
/* authorisation */ '');

FILE_SCHEMA (('AUTOMOTIVE_DESIGN { 1 0 10303 214 3 1 1 }'));
ENDSEC;

DATA;
#10=MECHANICAL_DESIGN_GEOMETRIC_PRESENTATION_REPRESENTATION('',(#13),#662);
#11=SHAPE_REPRESENTATION_RELATIONSHIP('SRR','None',#669,#12);
#12=ADVANCED_BREP_SHAPE_REPRESENTATION('',(#14),#661);
#13=STYLED_ITEM('',(#679),#14);
#14=MANIFOLD_SOLID_BREP('Body1',#402);
#15=FACE_BOUND('',#78,.T.);
#16=FACE_BOUND('',#80,.T.);
#17=FACE_BOUND('',#86,.T.);
#18=FACE_BOUND('',#87,.T.);
#19=FACE_BOUND('',#88,.T.);
#20=FACE_BOUND('',#89,.T.);
#21=FACE_BOUND('',#90,.T.);
#22=FACE_BOUND('',#92,.T.);
#23=FACE_BOUND('',#93,.T.);
#24=FACE_BOUND('',#94,.T.);
#25=FACE_BOUND('',#95,.T.);
#26=FACE_BOUND('',#96,.T.);
#27=PLANE('',#431);
#28=PLANE('',#432);
#29=PLANE('',#433);
#30=PLANE('',#434);
#31=PLANE('',#435);
#32=PLANE('',#436);
#33=PLANE('',#437);
#34=PLANE('',#438);
#35=PLANE('',#439);
#36=PLANE('',#440);
#37=PLANE('',#441);
#38=PLANE('',#442);
#39=PLANE('',#443);
#40=PLANE('',#444);
#41=PLANE('',#445);
#42=PLANE('',#446);
#43=FACE_OUTER_BOUND('',#64,.T.);
#44=FACE_OUTER_BOUND('',#65,.T.);
#45=FACE_OUTER_BOUND('',#66,.T.);
#46=FACE_OUTER_BOUND('',#67,.T.);
#47=FACE_OUTER_BOUND('',#68,.T.);
#48=FACE_OUTER_BOUND('',#69,.T.);
#49=FACE_OUTER_BOUND('',#70,.T.);
#50=FACE_OUTER_BOUND('',#71,.T.);
#51=FACE_OUTER_BOUND('',#72,.T.);
#52=FACE_OUTER_BOUND('',#73,.T.);
#53=FACE_OUTER_BOUND('',#74,.T.);
#54=FACE_OUTER_BOUND('',#75,.T.);
#55=FACE_OUTER_BOUND('',#76,.T.);
#56=FACE_OUTER_BOUND('',#77,.T.);
#57=FACE_OUTER_BOUND('',#79,.T.);
#58=FACE_OUTER_BOUND('',#81,.T.);
#59=FACE_OUTER_BOUND('',#82,.T.);
#60=FACE_OUTER_BOUND('',#83,.T.);
#61=FACE_OUTER_BOUND('',#84,.T.);
#62=FACE_OUTER_BOUND('',#85,.T.);
#63=FACE_OUTER_BOUND('',#91,.T.);
#64=EDGE_LOOP('',(#274,#275,#276,#277));
#65=EDGE_LOOP('',(#278,#279,#280,#281));
#66=EDGE_LOOP('',(#282,#283,#284,#285));
#67=EDGE_LOOP('',(#286,#287,#288,#289));
#68=EDGE_LOOP('',(#290,#291,#292,#293));
#69=EDGE_LOOP('',(#294,#295,#296,#297));
#70=EDGE_LOOP('',(#298,#299,#300,#301));
#71=EDGE_LOOP('',(#302,#303,#304,#305));
#72=EDGE_LOOP('',(#306,#307,#308,#309));
#73=EDGE_LOOP('',(#310,#311,#312,#313));
#74=EDGE_LOOP('',(#314,#315,#316,#317));
#75=EDGE_LOOP('',(#318,#319,#320,#321));
#76=EDGE_LOOP('',(#322,#323,#324,#325));
#77=EDGE_LOOP('',(#326,#327,#328,#329));
#78=EDGE_LOOP('',(#330,#331,#332,#333));
#79=EDGE_LOOP('',(#334,#335,#336,#337));
#80=EDGE_LOOP('',(#338,#339,#340,#341));
#81=EDGE_LOOP('',(#342,#343,#344,#345));
#82=EDGE_LOOP('',(#346,#347,#348,#349));
#83=EDGE_LOOP('',(#350,#351,#352,#353));
#84=EDGE_LOOP('',(#354,#355,#356,#357));
#85=EDGE_LOOP('',(#358,#359,#360,#361));
#86=EDGE_LOOP('',(#362));
#87=EDGE_LOOP('',(#363));
#88=EDGE_LOOP('',(#364));
#89=EDGE_LOOP('',(#365));
#90=EDGE_LOOP('',(#366));
#91=EDGE_LOOP('',(#367,#368,#369,#370));
#92=EDGE_LOOP('',(#371));
#93=EDGE_LOOP('',(#372));
#94=EDGE_LOOP('',(#373));
#95=EDGE_LOOP('',(#374));
#96=EDGE_LOOP('',(#375));
#97=LINE('',#557,#138);
#98=LINE('',#563,#139);
#99=LINE('',#569,#140);
#100=LINE('',#575,#141);
#101=LINE('',#581,#142);
#102=LINE('',#586,#143);
#103=LINE('',#588,#144);
#104=LINE('',#590,#145);
#105=LINE('',#591,#146);
#106=LINE('',#594,#147);
#107=LINE('',#596,#148);
#108=LINE('',#597,#149);
#109=LINE('',#600,#150);
#110=LINE('',#602,#151);
#111=LINE('',#603,#152);
#112=LINE('',#605,#153);
#113=LINE('',#606,#154);
#114=LINE('',#610,#155);
#115=LINE('',#612,#156);
#116=LINE('',#614,#157);
#117=LINE('',#615,#158);
#118=LINE('',#618,#159);
#119=LINE('',#620,#160);
#120=LINE('',#621,#161);
#121=LINE('',#624,#162);
#122=LINE('',#626,#163);
#123=LINE('',#627,#164);
#124=LINE('',#629,#165);
#125=LINE('',#630,#166);
#126=LINE('',#635,#167);
#127=LINE('',#637,#168);
#128=LINE('',#639,#169);
#129=LINE('',#640,#170);
#130=LINE('',#644,#171);
#131=LINE('',#645,#172);
#132=LINE('',#646,#173);
#133=LINE('',#649,#174);
#134=LINE('',#650,#175);
#135=LINE('',#653,#176);
#136=LINE('',#654,#177);
#137=LINE('',#656,#178);
#138=VECTOR('',#453,1.6);
#139=VECTOR('',#460,1.6);
#140=VECTOR('',#467,1.6);
#141=VECTOR('',#474,1.6);
#142=VECTOR('',#481,17.5);
#143=VECTOR('',#486,10.);
#144=VECTOR('',#487,10.);
#145=VECTOR('',#488,10.);
#146=VECTOR('',#489,10.);
#147=VECTOR('',#492,10.);
#148=VECTOR('',#493,10.);
#149=VECTOR('',#494,10.);
#150=VECTOR('',#497,10.);
#151=VECTOR('',#498,10.);
#152=VECTOR('',#499,10.);
#153=VECTOR('',#502,10.);
#154=VECTOR('',#503,10.);
#155=VECTOR('',#506,10.);
#156=VECTOR('',#507,10.);
#157=VECTOR('',#508,10.);
#158=VECTOR('',#509,10.);
#159=VECTOR('',#512,10.);
#160=VECTOR('',#513,10.);
#161=VECTOR('',#514,10.);
#162=VECTOR('',#517,10.);
#163=VECTOR('',#518,10.);
#164=VECTOR('',#519,10.);
#165=VECTOR('',#522,10.);
#166=VECTOR('',#523,10.);
#167=VECTOR('',#528,10.);
#168=VECTOR('',#529,10.);
#169=VECTOR('',#530,10.);
#170=VECTOR('',#531,10.);
#171=VECTOR('',#534,10.);
#172=VECTOR('',#535,10.);
#173=VECTOR('',#536,10.);
#174=VECTOR('',#539,10.);
#175=VECTOR('',#540,10.);
#176=VECTOR('',#543,10.);
#177=VECTOR('',#544,10.);
#178=VECTOR('',#547,10.);
#179=CIRCLE('',#417,1.6);
#180=CIRCLE('',#418,1.6);
#181=CIRCLE('',#420,1.6);
#182=CIRCLE('',#421,1.6);
#183=CIRCLE('',#423,1.6);
#184=CIRCLE('',#424,1.6);
#185=CIRCLE('',#426,1.6);
#186=CIRCLE('',#427,1.6);
#187=CIRCLE('',#429,17.5);
#188=CIRCLE('',#430,17.5);
#189=VERTEX_POINT('',#554);
#190=VERTEX_POINT('',#556);
#191=VERTEX_POINT('',#560);
#192=VERTEX_POINT('',#562);
#193=VERTEX_POINT('',#566);
#194=VERTEX_POINT('',#568);
#195=VERTEX_POINT('',#572);
#196=VERTEX_POINT('',#574);
#197=VERTEX_POINT('',#578);
#198=VERTEX_POINT('',#580);
#199=VERTEX_POINT('',#584);
#200=VERTEX_POINT('',#585);
#201=VERTEX_POINT('',#587);
#202=VERTEX_POINT('',#589);
#203=VERTEX_POINT('',#593);
#204=VERTEX_POINT('',#595);
#205=VERTEX_POINT('',#599);
#206=VERTEX_POINT('',#601);
#207=VERTEX_POINT('',#608);
#208=VERTEX_POINT('',#609);
#209=VERTEX_POINT('',#611);
#210=VERTEX_POINT('',#613);
#211=VERTEX_POINT('',#617);
#212=VERTEX_POINT('',#619);
#213=VERTEX_POINT('',#623);
#214=VERTEX_POINT('',#625);
#215=VERTEX_POINT('',#633);
#216=VERTEX_POINT('',#634);
#217=VERTEX_POINT('',#636);
#218=VERTEX_POINT('',#638);
#219=VERTEX_POINT('',#642);
#220=VERTEX_POINT('',#643);
#221=VERTEX_POINT('',#648);
#222=VERTEX_POINT('',#652);
#223=EDGE_CURVE('',#189,#189,#179,.T.);
#224=EDGE_CURVE('',#189,#190,#97,.T.);
#225=EDGE_CURVE('',#190,#190,#180,.T.);
#226=EDGE_CURVE('',#191,#191,#181,.T.);
#227=EDGE_CURVE('',#191,#192,#98,.T.);
#228=EDGE_CURVE('',#192,#192,#182,.T.);
#229=EDGE_CURVE('',#193,#193,#183,.T.);
#230=EDGE_CURVE('',#193,#194,#99,.T.);
#231=EDGE_CURVE('',#194,#194,#184,.T.);
#232=EDGE_CURVE('',#195,#195,#185,.T.);
#233=EDGE_CURVE('',#195,#196,#100,.T.);
#234=EDGE_CURVE('',#196,#196,#186,.T.);
#235=EDGE_CURVE('',#197,#197,#187,.T.);
#236=EDGE_CURVE('',#197,#198,#101,.T.);
#237=EDGE_CURVE('',#198,#198,#188,.T.);
#238=EDGE_CURVE('',#199,#200,#102,.T.);
#239=EDGE_CURVE('',#199,#201,#103,.F.);
#240=EDGE_CURVE('',#202,#201,#104,.T.);
#241=EDGE_CURVE('',#200,#202,#105,.T.);
#242=EDGE_CURVE('',#203,#199,#106,.T.);
#243=EDGE_CURVE('',#203,#204,#107,.F.);
#244=EDGE_CURVE('',#201,#204,#108,.T.);
#245=EDGE_CURVE('',#205,#203,#109,.T.);
#246=EDGE_CURVE('',#205,#206,#110,.F.);
#247=EDGE_CURVE('',#204,#206,#111,.T.);
#248=EDGE_CURVE('',#200,#205,#112,.T.);
#249=EDGE_CURVE('',#206,#202,#113,.T.);
#250=EDGE_CURVE('',#207,#208,#114,.T.);
#251=EDGE_CURVE('',#207,#209,#115,.T.);
#252=EDGE_CURVE('',#210,#209,#116,.T.);
#253=EDGE_CURVE('',#208,#210,#117,.T.);
#254=EDGE_CURVE('',#208,#211,#118,.T.);
#255=EDGE_CURVE('',#212,#210,#119,.T.);
#256=EDGE_CURVE('',#211,#212,#120,.T.);
#257=EDGE_CURVE('',#211,#213,#121,.T.);
#258=EDGE_CURVE('',#214,#212,#122,.T.);
#259=EDGE_CURVE('',#213,#214,#123,.T.);
#260=EDGE_CURVE('',#213,#207,#124,.T.);
#261=EDGE_CURVE('',#209,#214,#125,.T.);
#262=EDGE_CURVE('',#215,#216,#126,.T.);
#263=EDGE_CURVE('',#216,#217,#127,.T.);
#264=EDGE_CURVE('',#217,#218,#128,.T.);
#265=EDGE_CURVE('',#218,#215,#129,.T.);
#266=EDGE_CURVE('',#219,#220,#130,.T.);
#267=EDGE_CURVE('',#219,#215,#131,.T.);
#268=EDGE_CURVE('',#220,#218,#132,.T.);
#269=EDGE_CURVE('',#220,#221,#133,.T.);
#270=EDGE_CURVE('',#221,#217,#134,.T.);
#271=EDGE_CURVE('',#221,#222,#135,.T.);
#272=EDGE_CURVE('',#222,#216,#136,.T.);
#273=EDGE_CURVE('',#222,#219,#137,.T.);
#274=ORIENTED_EDGE('',*,*,#223,.F.);
#275=ORIENTED_EDGE('',*,*,#224,.T.);
#276=ORIENTED_EDGE('',*,*,#225,.F.);
#277=ORIENTED_EDGE('',*,*,#224,.F.);
#278=ORIENTED_EDGE('',*,*,#226,.F.);
#279=ORIENTED_EDGE('',*,*,#227,.T.);
#280=ORIENTED_EDGE('',*,*,#228,.F.);
#281=ORIENTED_EDGE('',*,*,#227,.F.);
#282=ORIENTED_EDGE('',*,*,#229,.F.);
#283=ORIENTED_EDGE('',*,*,#230,.T.);
#284=ORIENTED_EDGE('',*,*,#231,.F.);
#285=ORIENTED_EDGE('',*,*,#230,.F.);
#286=ORIENTED_EDGE('',*,*,#232,.F.);
#287=ORIENTED_EDGE('',*,*,#233,.T.);
#288=ORIENTED_EDGE('',*,*,#234,.F.);
#289=ORIENTED_EDGE('',*,*,#233,.F.);
#290=ORIENTED_EDGE('',*,*,#235,.F.);
#291=ORIENTED_EDGE('',*,*,#236,.T.);
#292=ORIENTED_EDGE('',*,*,#237,.F.);
#293=ORIENTED_EDGE('',*,*,#236,.F.);
#294=ORIENTED_EDGE('',*,*,#238,.F.);
#295=ORIENTED_EDGE('',*,*,#239,.T.);
#296=ORIENTED_EDGE('',*,*,#240,.F.);
#297=ORIENTED_EDGE('',*,*,#241,.F.);
#298=ORIENTED_EDGE('',*,*,#242,.F.);
#299=ORIENTED_EDGE('',*,*,#243,.T.);
#300=ORIENTED_EDGE('',*,*,#244,.F.);
#301=ORIENTED_EDGE('',*,*,#239,.F.);
#302=ORIENTED_EDGE('',*,*,#245,.F.);
#303=ORIENTED_EDGE('',*,*,#246,.T.);
#304=ORIENTED_EDGE('',*,*,#247,.F.);
#305=ORIENTED_EDGE('',*,*,#243,.F.);
#306=ORIENTED_EDGE('',*,*,#248,.F.);
#307=ORIENTED_EDGE('',*,*,#241,.T.);
#308=ORIENTED_EDGE('',*,*,#249,.F.);
#309=ORIENTED_EDGE('',*,*,#246,.F.);
#310=ORIENTED_EDGE('',*,*,#250,.F.);
#311=ORIENTED_EDGE('',*,*,#251,.T.);
#312=ORIENTED_EDGE('',*,*,#252,.F.);
#313=ORIENTED_EDGE('',*,*,#253,.F.);
#314=ORIENTED_EDGE('',*,*,#254,.F.);
#315=ORIENTED_EDGE('',*,*,#253,.T.);
#316=ORIENTED_EDGE('',*,*,#255,.F.);
#317=ORIENTED_EDGE('',*,*,#256,.F.);
#318=ORIENTED_EDGE('',*,*,#257,.F.);
#319=ORIENTED_EDGE('',*,*,#256,.T.);
#320=ORIENTED_EDGE('',*,*,#258,.F.);
#321=ORIENTED_EDGE('',*,*,#259,.F.);
#322=ORIENTED_EDGE('',*,*,#260,.F.);
#323=ORIENTED_EDGE('',*,*,#259,.T.);
#324=ORIENTED_EDGE('',*,*,#261,.F.);
#325=ORIENTED_EDGE('',*,*,#251,.F.);
#326=ORIENTED_EDGE('',*,*,#261,.T.);
#327=ORIENTED_EDGE('',*,*,#258,.T.);
#328=ORIENTED_EDGE('',*,*,#255,.T.);
#329=ORIENTED_EDGE('',*,*,#252,.T.);
#330=ORIENTED_EDGE('',*,*,#240,.T.);
#331=ORIENTED_EDGE('',*,*,#244,.T.);
#332=ORIENTED_EDGE('',*,*,#247,.T.);
#333=ORIENTED_EDGE('',*,*,#249,.T.);
#334=ORIENTED_EDGE('',*,*,#262,.T.);
#335=ORIENTED_EDGE('',*,*,#263,.T.);
#336=ORIENTED_EDGE('',*,*,#264,.T.);
#337=ORIENTED_EDGE('',*,*,#265,.T.);
#338=ORIENTED_EDGE('',*,*,#250,.T.);
#339=ORIENTED_EDGE('',*,*,#254,.T.);
#340=ORIENTED_EDGE('',*,*,#257,.T.);
#341=ORIENTED_EDGE('',*,*,#260,.T.);
#342=ORIENTED_EDGE('',*,*,#266,.F.);
#343=ORIENTED_EDGE('',*,*,#267,.T.);
#344=ORIENTED_EDGE('',*,*,#265,.F.);
#345=ORIENTED_EDGE('',*,*,#268,.F.);
#346=ORIENTED_EDGE('',*,*,#269,.F.);
#347=ORIENTED_EDGE('',*,*,#268,.T.);
#348=ORIENTED_EDGE('',*,*,#264,.F.);
#349=ORIENTED_EDGE('',*,*,#270,.F.);
#350=ORIENTED_EDGE('',*,*,#271,.F.);
#351=ORIENTED_EDGE('',*,*,#270,.T.);
#352=ORIENTED_EDGE('',*,*,#263,.F.);
#353=ORIENTED_EDGE('',*,*,#272,.F.);
#354=ORIENTED_EDGE('',*,*,#273,.F.);
#355=ORIENTED_EDGE('',*,*,#272,.T.);
#356=ORIENTED_EDGE('',*,*,#262,.F.);
#357=ORIENTED_EDGE('',*,*,#267,.F.);
#358=ORIENTED_EDGE('',*,*,#238,.T.);
#359=ORIENTED_EDGE('',*,*,#248,.T.);
#360=ORIENTED_EDGE('',*,*,#245,.T.);
#361=ORIENTED_EDGE('',*,*,#242,.T.);
#362=ORIENTED_EDGE('',*,*,#237,.T.);
#363=ORIENTED_EDGE('',*,*,#234,.T.);
#364=ORIENTED_EDGE('',*,*,#231,.T.);
#365=ORIENTED_EDGE('',*,*,#228,.T.);
#366=ORIENTED_EDGE('',*,*,#225,.T.);
#367=ORIENTED_EDGE('',*,*,#273,.T.);
#368=ORIENTED_EDGE('',*,*,#266,.T.);
#369=ORIENTED_EDGE('',*,*,#269,.T.);
#370=ORIENTED_EDGE('',*,*,#271,.T.);
#371=ORIENTED_EDGE('',*,*,#235,.T.);
#372=ORIENTED_EDGE('',*,*,#232,.T.);
#373=ORIENTED_EDGE('',*,*,#229,.T.);
#374=ORIENTED_EDGE('',*,*,#226,.T.);
#375=ORIENTED_EDGE('',*,*,#223,.T.);
#376=CYLINDRICAL_SURFACE('',#416,1.6);
#377=CYLINDRICAL_SURFACE('',#419,1.6);
#378=CYLINDRICAL_SURFACE('',#422,1.6);
#379=CYLINDRICAL_SURFACE('',#425,1.6);
#380=CYLINDRICAL_SURFACE('',#428,17.5);
#381=ADVANCED_FACE('',(#43),#376,.F.);
#382=ADVANCED_FACE('',(#44),#377,.F.);
#383=ADVANCED_FACE('',(#45),#378,.F.);
#384=ADVANCED_FACE('',(#46),#379,.F.);
#385=ADVANCED_FACE('',(#47),#380,.F.);
#386=ADVANCED_FACE('',(#48),#27,.F.);
#387=ADVANCED_FACE('',(#49),#28,.F.);
#388=ADVANCED_FACE('',(#50),#29,.F.);
#389=ADVANCED_FACE('',(#51),#30,.F.);
#390=ADVANCED_FACE('',(#52),#31,.T.);
#391=ADVANCED_FACE('',(#53),#32,.T.);
#392=ADVANCED_FACE('',(#54),#33,.T.);
#393=ADVANCED_FACE('',(#55),#34,.T.);
#394=ADVANCED_FACE('',(#56,#15),#35,.T.);
#395=ADVANCED_FACE('',(#57,#16),#36,.T.);
#396=ADVANCED_FACE('',(#58),#37,.T.);
#397=ADVANCED_FACE('',(#59),#38,.T.);
#398=ADVANCED_FACE('',(#60),#39,.T.);
#399=ADVANCED_FACE('',(#61),#40,.T.);
#400=ADVANCED_FACE('',(#62,#17,#18,#19,#20,#21),#41,.T.);
#401=ADVANCED_FACE('',(#63,#22,#23,#24,#25,#26),#42,.F.);
#402=CLOSED_SHELL('',(#381,#382,#383,#384,#385,#386,#387,#388,#389,#390,
#391,#392,#393,#394,#395,#396,#397,#398,#399,#400,#401));
#403=DERIVED_UNIT_ELEMENT(#405,1.);
#404=DERIVED_UNIT_ELEMENT(#664,-3.);
#405=(
MASS_UNIT()
NAMED_UNIT(*)
SI_UNIT(.KILO.,.GRAM.)
);
#406=DERIVED_UNIT((#403,#404));
#407=MEASURE_REPRESENTATION_ITEM('density measure',
POSITIVE_RATIO_MEASURE(7850.),#406);
#408=PROPERTY_DEFINITION_REPRESENTATION(#413,#410);
#409=PROPERTY_DEFINITION_REPRESENTATION(#414,#411);
#410=REPRESENTATION('material name',(#412),#661);
#411=REPRESENTATION('density',(#407),#661);
#412=DESCRIPTIVE_REPRESENTATION_ITEM('Steel','Steel');
#413=PROPERTY_DEFINITION('material property','material name',#671);
#414=PROPERTY_DEFINITION('material property','density of part',#671);
#415=AXIS2_PLACEMENT_3D('',#552,#447,#448);
#416=AXIS2_PLACEMENT_3D('',#553,#449,#450);
#417=AXIS2_PLACEMENT_3D('',#555,#451,#452);
#418=AXIS2_PLACEMENT_3D('',#558,#454,#455);
#419=AXIS2_PLACEMENT_3D('',#559,#456,#457);
#420=AXIS2_PLACEMENT_3D('',#561,#458,#459);
#421=AXIS2_PLACEMENT_3D('',#564,#461,#462);
#422=AXIS2_PLACEMENT_3D('',#565,#463,#464);
#423=AXIS2_PLACEMENT_3D('',#567,#465,#466);
#424=AXIS2_PLACEMENT_3D('',#570,#468,#469);
#425=AXIS2_PLACEMENT_3D('',#571,#470,#471);
#426=AXIS2_PLACEMENT_3D('',#573,#472,#473);
#427=AXIS2_PLACEMENT_3D('',#576,#475,#476);
#428=AXIS2_PLACEMENT_3D('',#577,#477,#478);
#429=AXIS2_PLACEMENT_3D('',#579,#479,#480);
#430=AXIS2_PLACEMENT_3D('',#582,#482,#483);
#431=AXIS2_PLACEMENT_3D('',#583,#484,#485);
#432=AXIS2_PLACEMENT_3D('',#592,#490,#491);
#433=AXIS2_PLACEMENT_3D('',#598,#495,#496);
#434=AXIS2_PLACEMENT_3D('',#604,#500,#501);
#435=AXIS2_PLACEMENT_3D('',#607,#504,#505);
#436=AXIS2_PLACEMENT_3D('',#616,#510,#511);
#437=AXIS2_PLACEMENT_3D('',#622,#515,#516);
#438=AXIS2_PLACEMENT_3D('',#628,#520,#521);
#439=AXIS2_PLACEMENT_3D('',#631,#524,#525);
#440=AXIS2_PLACEMENT_3D('',#632,#526,#527);
#441=AXIS2_PLACEMENT_3D('',#641,#532,#533);
#442=AXIS2_PLACEMENT_3D('',#647,#537,#538);
#443=AXIS2_PLACEMENT_3D('',#651,#541,#542);
#444=AXIS2_PLACEMENT_3D('',#655,#545,#546);
#445=AXIS2_PLACEMENT_3D('',#657,#548,#549);
#446=AXIS2_PLACEMENT_3D('',#658,#550,#551);
#447=DIRECTION('axis',(0.,0.,1.));
#448=DIRECTION('refdir',(1.,0.,0.));
#449=DIRECTION('center_axis',(0.,0.,1.));
#450=DIRECTION('ref_axis',(1.,0.,0.));
#451=DIRECTION('center_axis',(0.,0.,1.));
#452=DIRECTION('ref_axis',(1.,0.,0.));
#453=DIRECTION('',(0.,0.,1.));
#454=DIRECTION('center_axis',(0.,0.,-1.));
#455=DIRECTION('ref_axis',(1.,0.,0.));
#456=DIRECTION('center_axis',(0.,0.,1.));
#457=DIRECTION('ref_axis',(1.,0.,0.));
#458=DIRECTION('center_axis',(0.,0.,1.));
#459=DIRECTION('ref_axis',(1.,0.,0.));
#460=DIRECTION('',(0.,0.,1.));
#461=DIRECTION('center_axis',(0.,0.,-1.));
#462=DIRECTION('ref_axis',(1.,0.,0.));
#463=DIRECTION('center_axis',(0.,0.,1.));
#464=DIRECTION('ref_axis',(1.,0.,0.));
#465=DIRECTION('center_axis',(0.,0.,1.));
#466=DIRECTION('ref_axis',(1.,0.,0.));
#467=DIRECTION('',(0.,0.,1.));
#468=DIRECTION('center_axis',(0.,0.,-1.));
#469=DIRECTION('ref_axis',(1.,0.,0.));
#470=DIRECTION('center_axis',(0.,0.,1.));
#471=DIRECTION('ref_axis',(1.,0.,0.));
#472=DIRECTION('center_axis',(0.,0.,1.));
#473=DIRECTION('ref_axis',(1.,0.,0.));
#474=DIRECTION('',(0.,0.,1.));
#475=DIRECTION('center_axis',(0.,0.,-1.));
#476=DIRECTION('ref_axis',(1.,0.,0.));
#477=DIRECTION('center_axis',(0.,0.,1.));
#478=DIRECTION('ref_axis',(1.,0.,0.));
#479=DIRECTION('center_axis',(0.,0.,1.));
#480=DIRECTION('ref_axis',(1.,0.,0.));
#481=DIRECTION('',(0.,0.,1.));
#482=DIRECTION('center_axis',(0.,0.,-1.));
#483=DIRECTION('ref_axis',(1.,0.,0.));
#484=DIRECTION('center_axis',(-1.,2.24855296126614E-16,0.));
#485=DIRECTION('ref_axis',(-2.24855296126614E-16,-1.,0.));
#486=DIRECTION('',(-2.24855296126614E-16,-1.,0.));
#487=DIRECTION('',(0.,0.,-1.));
#488=DIRECTION('',(2.24855296126614E-16,1.,0.));
#489=DIRECTION('',(0.,0.,1.));
#490=DIRECTION('center_axis',(6.16790569236198E-17,1.,0.));
#491=DIRECTION('ref_axis',(-1.,6.16790569236198E-17,0.));
#492=DIRECTION('',(-1.,6.16790569236198E-17,0.));
#493=DIRECTION('',(0.,0.,-1.));
#494=DIRECTION('',(1.,-6.16790569236198E-17,0.));
#495=DIRECTION('center_axis',(1.,0.,0.));
#496=DIRECTION('ref_axis',(0.,1.,0.));
#497=DIRECTION('',(0.,1.,0.));
#498=DIRECTION('',(0.,0.,-1.));
#499=DIRECTION('',(0.,-1.,0.));
#500=DIRECTION('center_axis',(-6.16790569236198E-17,-1.,0.));
#501=DIRECTION('ref_axis',(1.,-6.16790569236198E-17,0.));
#502=DIRECTION('',(1.,-6.16790569236198E-17,0.));
#503=DIRECTION('',(-1.,6.16790569236198E-17,0.));
#504=DIRECTION('center_axis',(-1.,2.24855296126614E-16,0.));
#505=DIRECTION('ref_axis',(-2.24855296126614E-16,-1.,0.));
#506=DIRECTION('',(2.24855296126614E-16,1.,0.));
#507=DIRECTION('',(0.,0.,1.));
#508=DIRECTION('',(-2.24855296126614E-16,-1.,0.));
#509=DIRECTION('',(0.,0.,1.));
#510=DIRECTION('center_axis',(6.16790569236198E-17,1.,0.));
#511=DIRECTION('ref_axis',(-1.,6.16790569236198E-17,0.));
#512=DIRECTION('',(1.,-6.16790569236198E-17,0.));
#513=DIRECTION('',(-1.,6.16790569236198E-17,0.));
#514=DIRECTION('',(0.,0.,1.));
#515=DIRECTION('center_axis',(1.,0.,0.));
#516=DIRECTION('ref_axis',(0.,1.,0.));
#517=DIRECTION('',(0.,-1.,0.));
#518=DIRECTION('',(0.,1.,0.));
#519=DIRECTION('',(0.,0.,1.));
#520=DIRECTION('center_axis',(-6.16790569236198E-17,-1.,0.));
#521=DIRECTION('ref_axis',(1.,-6.16790569236198E-17,0.));
#522=DIRECTION('',(-1.,6.16790569236198E-17,0.));
#523=DIRECTION('',(1.,-6.16790569236198E-17,0.));
#524=DIRECTION('center_axis',(0.,0.,1.));
#525=DIRECTION('ref_axis',(1.,0.,0.));
#526=DIRECTION('center_axis',(0.,0.,1.));
#527=DIRECTION('ref_axis',(1.,0.,0.));
#528=DIRECTION('',(-1.,0.,0.));
#529=DIRECTION('',(0.,-1.,0.));
#530=DIRECTION('',(1.,5.9211894646675E-17,0.));
#531=DIRECTION('',(-1.0449157878825E-16,1.,0.));
#532=DIRECTION('center_axis',(1.,1.0449157878825E-16,0.));
#533=DIRECTION('ref_axis',(-1.0449157878825E-16,1.,0.));
#534=DIRECTION('',(1.0449157878825E-16,-1.,0.));
#535=DIRECTION('',(0.,0.,1.));
#536=DIRECTION('',(0.,0.,1.));
#537=DIRECTION('center_axis',(5.9211894646675E-17,-1.,0.));
#538=DIRECTION('ref_axis',(1.,5.9211894646675E-17,0.));
#539=DIRECTION('',(-1.,-5.9211894646675E-17,0.));
#540=DIRECTION('',(0.,0.,1.));
#541=DIRECTION('center_axis',(-1.,0.,0.));
#542=DIRECTION('ref_axis',(0.,-1.,0.));
#543=DIRECTION('',(0.,1.,0.));
#544=DIRECTION('',(0.,0.,1.));
#545=DIRECTION('center_axis',(0.,1.,0.));
#546=DIRECTION('ref_axis',(-1.,0.,0.));
#547=DIRECTION('',(1.,0.,0.));
#548=DIRECTION('center_axis',(0.,0.,1.));
#549=DIRECTION('ref_axis',(1.,0.,0.));
#550=DIRECTION('center_axis',(0.,0.,1.));
#551=DIRECTION('ref_axis',(1.,0.,0.));
#552=CARTESIAN_POINT('',(0.,0.,0.));
#553=CARTESIAN_POINT('Origin',(-69.,36.5,0.));
#554=CARTESIAN_POINT('',(-70.6,36.5,0.));
#555=CARTESIAN_POINT('Origin',(-69.,36.5,0.));
#556=CARTESIAN_POINT('',(-70.6,36.5,3.));
#557=CARTESIAN_POINT('',(-70.6,36.5,0.));
#558=CARTESIAN_POINT('Origin',(-69.,36.5,3.));
#559=CARTESIAN_POINT('Origin',(69.,36.5,0.));
#560=CARTESIAN_POINT('',(67.4,36.5,0.));
#561=CARTESIAN_POINT('Origin',(69.,36.5,0.));
#562=CARTESIAN_POINT('',(67.4,36.5,3.));
#563=CARTESIAN_POINT('',(67.4,36.5,0.));
#564=CARTESIAN_POINT('Origin',(69.,36.5,3.));
#565=CARTESIAN_POINT('Origin',(-69.,-36.5,0.));
#566=CARTESIAN_POINT('',(-70.6,-36.5,0.));
#567=CARTESIAN_POINT('Origin',(-69.,-36.5,0.));
#568=CARTESIAN_POINT('',(-70.6,-36.5,3.));
#569=CARTESIAN_POINT('',(-70.6,-36.5,0.));
#570=CARTESIAN_POINT('Origin',(-69.,-36.5,3.));
#571=CARTESIAN_POINT('Origin',(69.,-36.5,0.));
#572=CARTESIAN_POINT('',(67.4,-36.5,0.));
#573=CARTESIAN_POINT('Origin',(69.,-36.5,0.));
#574=CARTESIAN_POINT('',(67.4,-36.5,3.));
#575=CARTESIAN_POINT('',(67.4,-36.5,0.));
#576=CARTESIAN_POINT('Origin',(69.,-36.5,3.));
#577=CARTESIAN_POINT('Origin',(-50.,-17.5,0.));
#578=CARTESIAN_POINT('',(-67.5,-17.5,0.));
#579=CARTESIAN_POINT('Origin',(-50.,-17.5,0.));
#580=CARTESIAN_POINT('',(-67.5,-17.5,3.));
#581=CARTESIAN_POINT('',(-67.5,-17.5,0.));
#582=CARTESIAN_POINT('Origin',(-50.,-17.5,3.));
#583=CARTESIAN_POINT('Origin',(-71.,39.5,3.));
#584=CARTESIAN_POINT('',(-71.,38.5,3.));
#585=CARTESIAN_POINT('',(-71.,-38.5,3.));
#586=CARTESIAN_POINT('',(-71.,19.75,3.));
#587=CARTESIAN_POINT('',(-71.,38.5,15.));
#588=CARTESIAN_POINT('',(-71.,38.5,3.));
#589=CARTESIAN_POINT('',(-71.,-38.5,15.));
#590=CARTESIAN_POINT('',(-71.,19.75,15.));
#591=CARTESIAN_POINT('',(-71.,-38.5,3.));
#592=CARTESIAN_POINT('Origin',(72.,38.5,3.));
#593=CARTESIAN_POINT('',(71.,38.5,3.));
#594=CARTESIAN_POINT('',(36.,38.5,3.));
#595=CARTESIAN_POINT('',(71.,38.5,15.));
#596=CARTESIAN_POINT('',(71.,38.5,3.));
#597=CARTESIAN_POINT('',(36.,38.5,15.));
#598=CARTESIAN_POINT('Origin',(71.,-39.5,3.));
#599=CARTESIAN_POINT('',(71.,-38.5,3.));
#600=CARTESIAN_POINT('',(71.,-19.75,3.));
#601=CARTESIAN_POINT('',(71.,-38.5,15.));
#602=CARTESIAN_POINT('',(71.,-38.5,3.));
#603=CARTESIAN_POINT('',(71.,-19.75,15.));
#604=CARTESIAN_POINT('Origin',(-72.,-38.5,3.));
#605=CARTESIAN_POINT('',(-36.,-38.5,3.));
#606=CARTESIAN_POINT('',(-36.,-38.5,15.));
#607=CARTESIAN_POINT('Origin',(-72.,39.5,3.));
#608=CARTESIAN_POINT('',(-72.,-39.5,3.));
#609=CARTESIAN_POINT('',(-72.,39.5,3.));
#610=CARTESIAN_POINT('',(-72.,19.75,3.));
#611=CARTESIAN_POINT('',(-72.,-39.5,15.));
#612=CARTESIAN_POINT('',(-72.,-39.5,3.));
#613=CARTESIAN_POINT('',(-72.,39.5,15.));
#614=CARTESIAN_POINT('',(-72.,39.5,15.));
#615=CARTESIAN_POINT('',(-72.,39.5,3.));
#616=CARTESIAN_POINT('Origin',(72.,39.5,3.));
#617=CARTESIAN_POINT('',(72.,39.5,3.));
#618=CARTESIAN_POINT('',(36.,39.5,3.));
#619=CARTESIAN_POINT('',(72.,39.5,15.));
#620=CARTESIAN_POINT('',(72.,39.5,15.));
#621=CARTESIAN_POINT('',(72.,39.5,3.));
#622=CARTESIAN_POINT('Origin',(72.,-39.5,3.));
#623=CARTESIAN_POINT('',(72.,-39.5,3.));
#624=CARTESIAN_POINT('',(72.,-19.75,3.));
#625=CARTESIAN_POINT('',(72.,-39.5,15.));
#626=CARTESIAN_POINT('',(72.,-39.5,15.));
#627=CARTESIAN_POINT('',(72.,-39.5,3.));
#628=CARTESIAN_POINT('Origin',(-72.,-39.5,3.));
#629=CARTESIAN_POINT('',(-36.,-39.5,3.));
#630=CARTESIAN_POINT('',(-72.,-39.5,15.));
#631=CARTESIAN_POINT('Origin',(-8.88178419700125E-15,0.,15.));
#632=CARTESIAN_POINT('Origin',(-8.88178419700125E-15,-8.88178419700125E-15,
3.));
#633=CARTESIAN_POINT('',(75.,42.5,3.));
#634=CARTESIAN_POINT('',(-75.,42.5,3.));
#635=CARTESIAN_POINT('',(-75.,42.5,3.));
#636=CARTESIAN_POINT('',(-75.,-42.5,3.));
#637=CARTESIAN_POINT('',(-75.,-42.5,3.));
#638=CARTESIAN_POINT('',(75.,-42.5,3.));
#639=CARTESIAN_POINT('',(75.,-42.5,3.));
#640=CARTESIAN_POINT('',(75.,42.5,3.));
#641=CARTESIAN_POINT('Origin',(75.,-42.5,0.));
#642=CARTESIAN_POINT('',(75.,42.5,0.));
#643=CARTESIAN_POINT('',(75.,-42.5,0.));
#644=CARTESIAN_POINT('',(75.,42.5,0.));
#645=CARTESIAN_POINT('',(75.,42.5,0.));
#646=CARTESIAN_POINT('',(75.,-42.5,0.));
#647=CARTESIAN_POINT('Origin',(-75.,-42.5,0.));
#648=CARTESIAN_POINT('',(-75.,-42.5,0.));
#649=CARTESIAN_POINT('',(75.,-42.5,0.));
#650=CARTESIAN_POINT('',(-75.,-42.5,0.));
#651=CARTESIAN_POINT('Origin',(-75.,42.5,0.));
#652=CARTESIAN_POINT('',(-75.,42.5,0.));
#653=CARTESIAN_POINT('',(-75.,-42.5,0.));
#654=CARTESIAN_POINT('',(-75.,42.5,0.));
#655=CARTESIAN_POINT('Origin',(75.,42.5,0.));
#656=CARTESIAN_POINT('',(-75.,42.5,0.));
#657=CARTESIAN_POINT('Origin',(-8.88178419700125E-15,-8.88178419700125E-15,
3.));
#658=CARTESIAN_POINT('Origin',(-8.88178419700125E-15,-8.88178419700125E-15,
0.));
#659=UNCERTAINTY_MEASURE_WITH_UNIT(LENGTH_MEASURE(0.01),#663,
'DISTANCE_ACCURACY_VALUE',
'Maximum model space distance between geometric entities at asserted c
onnectivities');
#660=UNCERTAINTY_MEASURE_WITH_UNIT(LENGTH_MEASURE(0.01),#663,
'DISTANCE_ACCURACY_VALUE',
'Maximum model space distance between geometric entities at asserted c
onnectivities');
#661=(
GEOMETRIC_REPRESENTATION_CONTEXT(3)
GLOBAL_UNCERTAINTY_ASSIGNED_CONTEXT((#659))
GLOBAL_UNIT_ASSIGNED_CONTEXT((#663,#665,#666))
REPRESENTATION_CONTEXT('','3D')
);
#662=(
GEOMETRIC_REPRESENTATION_CONTEXT(3)
GLOBAL_UNCERTAINTY_ASSIGNED_CONTEXT((#660))
GLOBAL_UNIT_ASSIGNED_CONTEXT((#663,#665,#666))
REPRESENTATION_CONTEXT('','3D')
);
#663=(
LENGTH_UNIT()
NAMED_UNIT(*)
SI_UNIT(.MILLI.,.METRE.)
);
#664=(
LENGTH_UNIT()
NAMED_UNIT(*)
SI_UNIT($,.METRE.)
);
#665=(
NAMED_UNIT(*)
PLANE_ANGLE_UNIT()
SI_UNIT($,.RADIAN.)
);
#666=(
NAMED_UNIT(*)
SI_UNIT($,.STERADIAN.)
SOLID_ANGLE_UNIT()
);
#667=SHAPE_DEFINITION_REPRESENTATION(#668,#669);
#668=PRODUCT_DEFINITION_SHAPE('',$,#671);
#669=SHAPE_REPRESENTATION('',(#415),#661);
#670=PRODUCT_DEFINITION_CONTEXT('part definition',#675,'design');
#671=PRODUCT_DEFINITION('2026-09-05-14-29-54-761','Phone Support',#672,
#670);
#672=PRODUCT_DEFINITION_FORMATION('',$,#677);
#673=PRODUCT_RELATED_PRODUCT_CATEGORY('Phone Support','Phone Support',(#677));
#674=APPLICATION_PROTOCOL_DEFINITION('international standard',
'automotive_design',2009,#675);
#675=APPLICATION_CONTEXT(
'Core Data for Automotive Mechanical Design Process');
#676=PRODUCT_CONTEXT('part definition',#675,'mechanical');
#677=PRODUCT('2026-09-05-14-29-54-761','Phone Support',$,(#676));
#678=PRESENTATION_STYLE_ASSIGNMENT((#680));
#679=PRESENTATION_STYLE_ASSIGNMENT((#681));
#680=SURFACE_STYLE_USAGE(.BOTH.,#682);
#681=SURFACE_STYLE_USAGE(.BOTH.,#683);
#682=SURFACE_SIDE_STYLE('',(#684));
#683=SURFACE_SIDE_STYLE('',(#685));
#684=SURFACE_STYLE_FILL_AREA(#686);
#685=SURFACE_STYLE_FILL_AREA(#687);
#686=FILL_AREA_STYLE('Steel - Satin',(#688));
#687=FILL_AREA_STYLE('Paint - Metallic (Yellow)',(#689));
#688=FILL_AREA_STYLE_COLOUR('Steel - Satin',#690);
#689=FILL_AREA_STYLE_COLOUR('Paint - Metallic (Yellow)',#691);
#690=COLOUR_RGB('Steel - Satin',0.627450980392157,0.627450980392157,0.627450980392157);
#691=COLOUR_RGB('Paint - Metallic (Yellow)',0.909803921568627,0.67843137254902,
0.137254901960784);
ENDSEC;
END-ISO-10303-21;
