ISO-10303-21;
HEADER;
/* Generated by software containing ST-Developer
 * from STEP Tools, Inc. (www.steptools.com) 
 */

FILE_DESCRIPTION(
/* description */ (''),
/* implementation_level */ '2;1');

FILE_NAME(
/* name */ 'Roller.step',
/* time_stamp */ '2026-09-06T12:59:07+05:30',
/* author */ (''),
/* organization */ (''),
/* preprocessor_version */ 'ST-DEVELOPER v20.2',
/* originating_system */ 'Autodesk Translation Framework v15.15.0.0',
/* authorisation */ '');

FILE_SCHEMA (('AUTOMOTIVE_DESIGN { 1 0 10303 214 3 1 1 }'));
ENDSEC;

DATA;
#10=MECHANICAL_DESIGN_GEOMETRIC_PRESENTATION_REPRESENTATION('',(#13),#442);
#11=SHAPE_REPRESENTATION_RELATIONSHIP('SRR','None',#449,#12);
#12=ADVANCED_BREP_SHAPE_REPRESENTATION('',(#14),#441);
#13=STYLED_ITEM('',(#459),#14);
#14=MANIFOLD_SOLID_BREP('Body1',#250);
#15=FACE_BOUND('',#78,.T.);
#16=FACE_BOUND('',#88,.T.);
#17=FACE_BOUND('',#90,.T.);
#18=LINE('',#377,#37);
#19=LINE('',#381,#38);
#20=LINE('',#384,#39);
#21=LINE('',#388,#40);
#22=LINE('',#395,#41);
#23=LINE('',#399,#42);
#24=LINE('',#403,#43);
#25=LINE('',#408,#44);
#26=LINE('',#409,#45);
#27=LINE('',#411,#46);
#28=LINE('',#412,#47);
#29=LINE('',#416,#48);
#30=LINE('',#418,#49);
#31=LINE('',#420,#50);
#32=LINE('',#421,#51);
#33=LINE('',#427,#52);
#34=LINE('',#430,#53);
#35=LINE('',#432,#54);
#36=LINE('',#433,#55);
#37=VECTOR('',#302,4.49999999999999);
#38=VECTOR('',#305,10.);
#39=VECTOR('',#308,4.49999999999999);
#40=VECTOR('',#311,10.);
#41=VECTOR('',#320,4.49999999999999);
#42=VECTOR('',#323,10.);
#43=VECTOR('',#326,10.);
#44=VECTOR('',#335,10.);
#45=VECTOR('',#336,10.);
#46=VECTOR('',#339,10.);
#47=VECTOR('',#340,10.);
#48=VECTOR('',#343,10.);
#49=VECTOR('',#344,10.);
#50=VECTOR('',#345,10.);
#51=VECTOR('',#346,10.);
#52=VECTOR('',#353,10.);
#53=VECTOR('',#356,10.);
#54=VECTOR('',#357,10.);
#55=VECTOR('',#358,10.);
#56=CYLINDRICAL_SURFACE('',#266,4.49999999999999);
#57=CYLINDRICAL_SURFACE('',#273,4.49999999999999);
#58=CYLINDRICAL_SURFACE('',#283,5.);
#59=CYLINDRICAL_SURFACE('',#287,5.);
#60=FACE_OUTER_BOUND('',#74,.T.);
#61=FACE_OUTER_BOUND('',#75,.T.);
#62=FACE_OUTER_BOUND('',#76,.T.);
#63=FACE_OUTER_BOUND('',#77,.T.);
#64=FACE_OUTER_BOUND('',#79,.T.);
#65=FACE_OUTER_BOUND('',#80,.T.);
#66=FACE_OUTER_BOUND('',#81,.T.);
#67=FACE_OUTER_BOUND('',#82,.T.);
#68=FACE_OUTER_BOUND('',#83,.T.);
#69=FACE_OUTER_BOUND('',#84,.T.);
#70=FACE_OUTER_BOUND('',#85,.T.);
#71=FACE_OUTER_BOUND('',#86,.T.);
#72=FACE_OUTER_BOUND('',#87,.T.);
#73=FACE_OUTER_BOUND('',#89,.T.);
#74=EDGE_LOOP('',(#160));
#75=EDGE_LOOP('',(#161,#162,#163,#164,#165,#166,#167,#168,#169,#170,#171,
#172));
#76=EDGE_LOOP('',(#173));
#77=EDGE_LOOP('',(#174,#175,#176,#177));
#78=EDGE_LOOP('',(#178,#179,#180,#181));
#79=EDGE_LOOP('',(#182));
#80=EDGE_LOOP('',(#183));
#81=EDGE_LOOP('',(#184,#185,#186,#187));
#82=EDGE_LOOP('',(#188,#189,#190,#191));
#83=EDGE_LOOP('',(#192,#193,#194,#195));
#84=EDGE_LOOP('',(#196,#197,#198,#199));
#85=EDGE_LOOP('',(#200,#201,#202,#203));
#86=EDGE_LOOP('',(#204,#205,#206,#207));
#87=EDGE_LOOP('',(#208,#209,#210,#211));
#88=EDGE_LOOP('',(#212,#213,#214,#215,#216));
#89=EDGE_LOOP('',(#217,#218,#219,#220));
#90=EDGE_LOOP('',(#221,#222,#223,#224,#225));
#91=CIRCLE('',#265,4.49999999999999);
#92=CIRCLE('',#267,4.49999999999999);
#93=CIRCLE('',#268,4.5);
#94=CIRCLE('',#269,4.5);
#95=CIRCLE('',#270,4.5);
#96=CIRCLE('',#271,4.5);
#97=CIRCLE('',#274,4.49999999999999);
#98=CIRCLE('',#275,4.49999999999999);
#99=CIRCLE('',#276,4.5);
#100=CIRCLE('',#277,4.5);
#101=CIRCLE('',#284,5.);
#102=CIRCLE('',#285,5.);
#103=CIRCLE('',#288,5.);
#104=CIRCLE('',#289,5.);
#105=VERTEX_POINT('',#371);
#106=VERTEX_POINT('',#374);
#107=VERTEX_POINT('',#376);
#108=VERTEX_POINT('',#378);
#109=VERTEX_POINT('',#380);
#110=VERTEX_POINT('',#382);
#111=VERTEX_POINT('',#385);
#112=VERTEX_POINT('',#387);
#113=VERTEX_POINT('',#392);
#114=VERTEX_POINT('',#394);
#115=VERTEX_POINT('',#397);
#116=VERTEX_POINT('',#398);
#117=VERTEX_POINT('',#400);
#118=VERTEX_POINT('',#402);
#119=VERTEX_POINT('',#414);
#120=VERTEX_POINT('',#415);
#121=VERTEX_POINT('',#417);
#122=VERTEX_POINT('',#419);
#123=VERTEX_POINT('',#423);
#124=VERTEX_POINT('',#425);
#125=VERTEX_POINT('',#429);
#126=VERTEX_POINT('',#431);
#127=EDGE_CURVE('',#105,#105,#91,.T.);
#128=EDGE_CURVE('',#106,#106,#92,.T.);
#129=EDGE_CURVE('',#106,#107,#18,.T.);
#130=EDGE_CURVE('',#108,#107,#93,.T.);
#131=EDGE_CURVE('',#109,#108,#19,.T.);
#132=EDGE_CURVE('',#110,#109,#94,.T.);
#133=EDGE_CURVE('',#110,#105,#20,.T.);
#134=EDGE_CURVE('',#111,#110,#95,.T.);
#135=EDGE_CURVE('',#111,#112,#21,.T.);
#136=EDGE_CURVE('',#107,#112,#96,.T.);
#137=EDGE_CURVE('',#113,#113,#97,.T.);
#138=EDGE_CURVE('',#113,#114,#22,.T.);
#139=EDGE_CURVE('',#114,#114,#98,.T.);
#140=EDGE_CURVE('',#115,#116,#23,.T.);
#141=EDGE_CURVE('',#117,#115,#99,.T.);
#142=EDGE_CURVE('',#117,#118,#24,.T.);
#143=EDGE_CURVE('',#116,#118,#100,.T.);
#144=EDGE_CURVE('',#109,#117,#25,.T.);
#145=EDGE_CURVE('',#118,#108,#26,.T.);
#146=EDGE_CURVE('',#115,#111,#27,.T.);
#147=EDGE_CURVE('',#112,#116,#28,.T.);
#148=EDGE_CURVE('',#119,#120,#29,.T.);
#149=EDGE_CURVE('',#120,#121,#30,.T.);
#150=EDGE_CURVE('',#122,#121,#31,.T.);
#151=EDGE_CURVE('',#119,#122,#32,.T.);
#152=EDGE_CURVE('',#123,#119,#101,.T.);
#153=EDGE_CURVE('',#124,#122,#102,.T.);
#154=EDGE_CURVE('',#123,#124,#33,.T.);
#155=EDGE_CURVE('',#125,#123,#34,.T.);
#156=EDGE_CURVE('',#126,#124,#35,.T.);
#157=EDGE_CURVE('',#125,#126,#36,.T.);
#158=EDGE_CURVE('',#120,#125,#103,.T.);
#159=EDGE_CURVE('',#121,#126,#104,.T.);
#160=ORIENTED_EDGE('',*,*,#127,.T.);
#161=ORIENTED_EDGE('',*,*,#128,.F.);
#162=ORIENTED_EDGE('',*,*,#129,.T.);
#163=ORIENTED_EDGE('',*,*,#130,.F.);
#164=ORIENTED_EDGE('',*,*,#131,.F.);
#165=ORIENTED_EDGE('',*,*,#132,.F.);
#166=ORIENTED_EDGE('',*,*,#133,.T.);
#167=ORIENTED_EDGE('',*,*,#127,.F.);
#168=ORIENTED_EDGE('',*,*,#133,.F.);
#169=ORIENTED_EDGE('',*,*,#134,.F.);
#170=ORIENTED_EDGE('',*,*,#135,.T.);
#171=ORIENTED_EDGE('',*,*,#136,.F.);
#172=ORIENTED_EDGE('',*,*,#129,.F.);
#173=ORIENTED_EDGE('',*,*,#128,.T.);
#174=ORIENTED_EDGE('',*,*,#137,.F.);
#175=ORIENTED_EDGE('',*,*,#138,.T.);
#176=ORIENTED_EDGE('',*,*,#139,.F.);
#177=ORIENTED_EDGE('',*,*,#138,.F.);
#178=ORIENTED_EDGE('',*,*,#140,.F.);
#179=ORIENTED_EDGE('',*,*,#141,.F.);
#180=ORIENTED_EDGE('',*,*,#142,.T.);
#181=ORIENTED_EDGE('',*,*,#143,.F.);
#182=ORIENTED_EDGE('',*,*,#139,.T.);
#183=ORIENTED_EDGE('',*,*,#137,.T.);
#184=ORIENTED_EDGE('',*,*,#144,.F.);
#185=ORIENTED_EDGE('',*,*,#131,.T.);
#186=ORIENTED_EDGE('',*,*,#145,.F.);
#187=ORIENTED_EDGE('',*,*,#142,.F.);
#188=ORIENTED_EDGE('',*,*,#146,.F.);
#189=ORIENTED_EDGE('',*,*,#140,.T.);
#190=ORIENTED_EDGE('',*,*,#147,.F.);
#191=ORIENTED_EDGE('',*,*,#135,.F.);
#192=ORIENTED_EDGE('',*,*,#148,.T.);
#193=ORIENTED_EDGE('',*,*,#149,.T.);
#194=ORIENTED_EDGE('',*,*,#150,.F.);
#195=ORIENTED_EDGE('',*,*,#151,.F.);
#196=ORIENTED_EDGE('',*,*,#152,.T.);
#197=ORIENTED_EDGE('',*,*,#151,.T.);
#198=ORIENTED_EDGE('',*,*,#153,.F.);
#199=ORIENTED_EDGE('',*,*,#154,.F.);
#200=ORIENTED_EDGE('',*,*,#155,.T.);
#201=ORIENTED_EDGE('',*,*,#154,.T.);
#202=ORIENTED_EDGE('',*,*,#156,.F.);
#203=ORIENTED_EDGE('',*,*,#157,.F.);
#204=ORIENTED_EDGE('',*,*,#158,.T.);
#205=ORIENTED_EDGE('',*,*,#157,.T.);
#206=ORIENTED_EDGE('',*,*,#159,.F.);
#207=ORIENTED_EDGE('',*,*,#149,.F.);
#208=ORIENTED_EDGE('',*,*,#159,.T.);
#209=ORIENTED_EDGE('',*,*,#156,.T.);
#210=ORIENTED_EDGE('',*,*,#153,.T.);
#211=ORIENTED_EDGE('',*,*,#150,.T.);
#212=ORIENTED_EDGE('',*,*,#145,.T.);
#213=ORIENTED_EDGE('',*,*,#130,.T.);
#214=ORIENTED_EDGE('',*,*,#136,.T.);
#215=ORIENTED_EDGE('',*,*,#147,.T.);
#216=ORIENTED_EDGE('',*,*,#143,.T.);
#217=ORIENTED_EDGE('',*,*,#158,.F.);
#218=ORIENTED_EDGE('',*,*,#148,.F.);
#219=ORIENTED_EDGE('',*,*,#152,.F.);
#220=ORIENTED_EDGE('',*,*,#155,.F.);
#221=ORIENTED_EDGE('',*,*,#144,.T.);
#222=ORIENTED_EDGE('',*,*,#141,.T.);
#223=ORIENTED_EDGE('',*,*,#146,.T.);
#224=ORIENTED_EDGE('',*,*,#134,.T.);
#225=ORIENTED_EDGE('',*,*,#132,.T.);
#226=PLANE('',#264);
#227=PLANE('',#272);
#228=PLANE('',#278);
#229=PLANE('',#279);
#230=PLANE('',#280);
#231=PLANE('',#281);
#232=PLANE('',#282);
#233=PLANE('',#286);
#234=PLANE('',#290);
#235=PLANE('',#291);
#236=ADVANCED_FACE('',(#60),#226,.F.);
#237=ADVANCED_FACE('',(#61),#56,.T.);
#238=ADVANCED_FACE('',(#62),#227,.T.);
#239=ADVANCED_FACE('',(#63,#15),#57,.T.);
#240=ADVANCED_FACE('',(#64),#228,.F.);
#241=ADVANCED_FACE('',(#65),#229,.T.);
#242=ADVANCED_FACE('',(#66),#230,.F.);
#243=ADVANCED_FACE('',(#67),#231,.F.);
#244=ADVANCED_FACE('',(#68),#232,.T.);
#245=ADVANCED_FACE('',(#69),#58,.T.);
#246=ADVANCED_FACE('',(#70),#233,.T.);
#247=ADVANCED_FACE('',(#71),#59,.T.);
#248=ADVANCED_FACE('',(#72,#16),#234,.T.);
#249=ADVANCED_FACE('',(#73,#17),#235,.F.);
#250=CLOSED_SHELL('',(#236,#237,#238,#239,#240,#241,#242,#243,#244,#245,
#246,#247,#248,#249));
#251=DERIVED_UNIT_ELEMENT(#253,1.);
#252=DERIVED_UNIT_ELEMENT(#444,-3.);
#253=(
MASS_UNIT()
NAMED_UNIT(*)
SI_UNIT(.KILO.,.GRAM.)
);
#254=DERIVED_UNIT((#251,#252));
#255=MEASURE_REPRESENTATION_ITEM('density measure',
POSITIVE_RATIO_MEASURE(7850.),#254);
#256=PROPERTY_DEFINITION_REPRESENTATION(#261,#258);
#257=PROPERTY_DEFINITION_REPRESENTATION(#262,#259);
#258=REPRESENTATION('material name',(#260),#441);
#259=REPRESENTATION('density',(#255),#441);
#260=DESCRIPTIVE_REPRESENTATION_ITEM('Steel','Steel');
#261=PROPERTY_DEFINITION('material property','material name',#451);
#262=PROPERTY_DEFINITION('material property','density of part',#451);
#263=AXIS2_PLACEMENT_3D('',#369,#292,#293);
#264=AXIS2_PLACEMENT_3D('',#370,#294,#295);
#265=AXIS2_PLACEMENT_3D('',#372,#296,#297);
#266=AXIS2_PLACEMENT_3D('',#373,#298,#299);
#267=AXIS2_PLACEMENT_3D('',#375,#300,#301);
#268=AXIS2_PLACEMENT_3D('',#379,#303,#304);
#269=AXIS2_PLACEMENT_3D('',#383,#306,#307);
#270=AXIS2_PLACEMENT_3D('',#386,#309,#310);
#271=AXIS2_PLACEMENT_3D('',#389,#312,#313);
#272=AXIS2_PLACEMENT_3D('',#390,#314,#315);
#273=AXIS2_PLACEMENT_3D('',#391,#316,#317);
#274=AXIS2_PLACEMENT_3D('',#393,#318,#319);
#275=AXIS2_PLACEMENT_3D('',#396,#321,#322);
#276=AXIS2_PLACEMENT_3D('',#401,#324,#325);
#277=AXIS2_PLACEMENT_3D('',#404,#327,#328);
#278=AXIS2_PLACEMENT_3D('',#405,#329,#330);
#279=AXIS2_PLACEMENT_3D('',#406,#331,#332);
#280=AXIS2_PLACEMENT_3D('',#407,#333,#334);
#281=AXIS2_PLACEMENT_3D('',#410,#337,#338);
#282=AXIS2_PLACEMENT_3D('',#413,#341,#342);
#283=AXIS2_PLACEMENT_3D('',#422,#347,#348);
#284=AXIS2_PLACEMENT_3D('',#424,#349,#350);
#285=AXIS2_PLACEMENT_3D('',#426,#351,#352);
#286=AXIS2_PLACEMENT_3D('',#428,#354,#355);
#287=AXIS2_PLACEMENT_3D('',#434,#359,#360);
#288=AXIS2_PLACEMENT_3D('',#435,#361,#362);
#289=AXIS2_PLACEMENT_3D('',#436,#363,#364);
#290=AXIS2_PLACEMENT_3D('',#437,#365,#366);
#291=AXIS2_PLACEMENT_3D('',#438,#367,#368);
#292=DIRECTION('axis',(0.,0.,1.));
#293=DIRECTION('refdir',(1.,0.,0.));
#294=DIRECTION('center_axis',(0.,1.,0.));
#295=DIRECTION('ref_axis',(1.,0.,0.));
#296=DIRECTION('center_axis',(0.,-1.,0.));
#297=DIRECTION('ref_axis',(1.,0.,0.));
#298=DIRECTION('center_axis',(0.,1.,0.));
#299=DIRECTION('ref_axis',(1.,0.,0.));
#300=DIRECTION('center_axis',(0.,1.,0.));
#301=DIRECTION('ref_axis',(1.,0.,0.));
#302=DIRECTION('',(0.,-1.,0.));
#303=DIRECTION('center_axis',(0.,-1.,0.));
#304=DIRECTION('ref_axis',(0.,0.,-1.));
#305=DIRECTION('',(0.,1.,0.));
#306=DIRECTION('center_axis',(0.,1.,0.));
#307=DIRECTION('ref_axis',(0.,0.,-1.));
#308=DIRECTION('',(0.,-1.,0.));
#309=DIRECTION('center_axis',(0.,1.,0.));
#310=DIRECTION('ref_axis',(0.,0.,-1.));
#311=DIRECTION('',(0.,1.,0.));
#312=DIRECTION('center_axis',(0.,-1.,0.));
#313=DIRECTION('ref_axis',(0.,0.,-1.));
#314=DIRECTION('center_axis',(0.,1.,0.));
#315=DIRECTION('ref_axis',(1.,0.,0.));
#316=DIRECTION('center_axis',(0.,1.,0.));
#317=DIRECTION('ref_axis',(1.,0.,0.));
#318=DIRECTION('center_axis',(0.,1.,0.));
#319=DIRECTION('ref_axis',(1.,0.,0.));
#320=DIRECTION('',(0.,-1.,0.));
#321=DIRECTION('center_axis',(0.,-1.,0.));
#322=DIRECTION('ref_axis',(1.,0.,0.));
#323=DIRECTION('',(0.,1.,0.));
#324=DIRECTION('center_axis',(0.,1.,0.));
#325=DIRECTION('ref_axis',(0.,0.,1.));
#326=DIRECTION('',(0.,1.,0.));
#327=DIRECTION('center_axis',(0.,-1.,0.));
#328=DIRECTION('ref_axis',(0.,0.,1.));
#329=DIRECTION('center_axis',(0.,1.,0.));
#330=DIRECTION('ref_axis',(1.,0.,0.));
#331=DIRECTION('center_axis',(0.,1.,0.));
#332=DIRECTION('ref_axis',(1.,0.,0.));
#333=DIRECTION('center_axis',(0.,0.,1.));
#334=DIRECTION('ref_axis',(1.,0.,0.));
#335=DIRECTION('',(1.,0.,0.));
#336=DIRECTION('',(-1.,0.,0.));
#337=DIRECTION('center_axis',(0.,0.,-1.));
#338=DIRECTION('ref_axis',(-1.,0.,0.));
#339=DIRECTION('',(-1.,0.,0.));
#340=DIRECTION('',(1.,0.,0.));
#341=DIRECTION('center_axis',(0.,0.,1.));
#342=DIRECTION('ref_axis',(1.,0.,0.));
#343=DIRECTION('',(1.,0.,0.));
#344=DIRECTION('',(0.,1.,0.));
#345=DIRECTION('',(1.,0.,0.));
#346=DIRECTION('',(0.,1.,0.));
#347=DIRECTION('center_axis',(0.,1.,0.));
#348=DIRECTION('ref_axis',(0.,0.,-1.));
#349=DIRECTION('center_axis',(0.,1.,0.));
#350=DIRECTION('ref_axis',(0.,0.,-1.));
#351=DIRECTION('center_axis',(0.,1.,0.));
#352=DIRECTION('ref_axis',(0.,0.,-1.));
#353=DIRECTION('',(0.,1.,0.));
#354=DIRECTION('center_axis',(0.,0.,-1.));
#355=DIRECTION('ref_axis',(-1.,0.,0.));
#356=DIRECTION('',(-1.,0.,0.));
#357=DIRECTION('',(-1.,0.,0.));
#358=DIRECTION('',(0.,1.,0.));
#359=DIRECTION('center_axis',(0.,1.,0.));
#360=DIRECTION('ref_axis',(0.,0.,1.));
#361=DIRECTION('center_axis',(0.,1.,0.));
#362=DIRECTION('ref_axis',(0.,0.,1.));
#363=DIRECTION('center_axis',(0.,1.,0.));
#364=DIRECTION('ref_axis',(0.,0.,1.));
#365=DIRECTION('center_axis',(0.,1.,0.));
#366=DIRECTION('ref_axis',(1.,0.,0.));
#367=DIRECTION('center_axis',(0.,1.,0.));
#368=DIRECTION('ref_axis',(1.,0.,0.));
#369=CARTESIAN_POINT('',(0.,0.,0.));
#370=CARTESIAN_POINT('Origin',(-90.0000013411045,-10.,5.00000007450581));
#371=CARTESIAN_POINT('',(-94.5000013411045,-10.,5.00000007450581));
#372=CARTESIAN_POINT('Origin',(-90.0000013411045,-10.,5.00000007450581));
#373=CARTESIAN_POINT('Origin',(-90.0000013411045,0.,5.00000007450581));
#374=CARTESIAN_POINT('',(-94.5000013411045,160.,5.00000007450581));
#375=CARTESIAN_POINT('Origin',(-90.0000013411045,160.,5.00000007450581));
#376=CARTESIAN_POINT('',(-94.5,150.,5.00000007450581));
#377=CARTESIAN_POINT('',(-94.5000013411045,0.,5.00000007450581));
#378=CARTESIAN_POINT('',(-90.,150.,9.50000000000001));
#379=CARTESIAN_POINT('Origin',(-90.,150.,5.));
#380=CARTESIAN_POINT('',(-90.,0.,9.50000000000001));
#381=CARTESIAN_POINT('',(-90.,0.,9.50000000000001));
#382=CARTESIAN_POINT('',(-94.5,0.,5.00000007450581));
#383=CARTESIAN_POINT('Origin',(-90.,0.,5.));
#384=CARTESIAN_POINT('',(-94.5000013411045,0.,5.00000007450581));
#385=CARTESIAN_POINT('',(-90.,0.,0.5));
#386=CARTESIAN_POINT('Origin',(-90.,0.,5.));
#387=CARTESIAN_POINT('',(-90.,150.,0.5));
#388=CARTESIAN_POINT('',(-90.,0.,0.5));
#389=CARTESIAN_POINT('Origin',(-90.,150.,5.));
#390=CARTESIAN_POINT('Origin',(-90.0000013411045,160.,5.00000007450581));
#391=CARTESIAN_POINT('Origin',(150.000002235174,0.,5.00000007450581));
#392=CARTESIAN_POINT('',(145.500002235174,160.,5.00000007450581));
#393=CARTESIAN_POINT('Origin',(150.000002235174,160.,5.00000007450581));
#394=CARTESIAN_POINT('',(145.500002235174,-10.,5.00000007450581));
#395=CARTESIAN_POINT('',(145.500002235174,0.,5.00000007450581));
#396=CARTESIAN_POINT('Origin',(150.000002235174,-10.,5.00000007450581));
#397=CARTESIAN_POINT('',(150.,0.,0.5));
#398=CARTESIAN_POINT('',(150.,150.,0.5));
#399=CARTESIAN_POINT('',(150.,0.,0.5));
#400=CARTESIAN_POINT('',(150.,0.,9.50000000000001));
#401=CARTESIAN_POINT('Origin',(150.,0.,5.));
#402=CARTESIAN_POINT('',(150.,150.,9.50000000000001));
#403=CARTESIAN_POINT('',(150.,0.,9.50000000000001));
#404=CARTESIAN_POINT('Origin',(150.,150.,5.));
#405=CARTESIAN_POINT('Origin',(150.000002235174,-10.,5.00000007450581));
#406=CARTESIAN_POINT('Origin',(150.000002235174,160.,5.00000007450581));
#407=CARTESIAN_POINT('Origin',(-90.,0.,9.50000000000001));
#408=CARTESIAN_POINT('',(-30.,0.,9.50000000000001));
#409=CARTESIAN_POINT('',(-30.,150.,9.50000000000001));
#410=CARTESIAN_POINT('Origin',(150.,0.,0.5));
#411=CARTESIAN_POINT('',(90.,0.,0.5));
#412=CARTESIAN_POINT('',(90.,150.,0.5));
#413=CARTESIAN_POINT('Origin',(-90.,0.,10.));
#414=CARTESIAN_POINT('',(-90.,0.,10.));
#415=CARTESIAN_POINT('',(150.,0.,10.));
#416=CARTESIAN_POINT('',(-90.,0.,10.));
#417=CARTESIAN_POINT('',(150.,150.,10.));
#418=CARTESIAN_POINT('',(150.,0.,10.));
#419=CARTESIAN_POINT('',(-90.,150.,10.));
#420=CARTESIAN_POINT('',(-90.,150.,10.));
#421=CARTESIAN_POINT('',(-90.,0.,10.));
#422=CARTESIAN_POINT('Origin',(-90.,0.,5.));
#423=CARTESIAN_POINT('',(-90.,0.,0.));
#424=CARTESIAN_POINT('Origin',(-90.,0.,5.));
#425=CARTESIAN_POINT('',(-90.,150.,0.));
#426=CARTESIAN_POINT('Origin',(-90.,150.,5.));
#427=CARTESIAN_POINT('',(-90.,0.,0.));
#428=CARTESIAN_POINT('Origin',(150.,0.,0.));
#429=CARTESIAN_POINT('',(150.,0.,0.));
#430=CARTESIAN_POINT('',(150.,0.,0.));
#431=CARTESIAN_POINT('',(150.,150.,0.));
#432=CARTESIAN_POINT('',(150.,150.,0.));
#433=CARTESIAN_POINT('',(150.,0.,0.));
#434=CARTESIAN_POINT('Origin',(150.,0.,5.));
#435=CARTESIAN_POINT('Origin',(150.,0.,5.));
#436=CARTESIAN_POINT('Origin',(150.,150.,5.));
#437=CARTESIAN_POINT('Origin',(30.,150.,5.));
#438=CARTESIAN_POINT('Origin',(30.,0.,5.));
#439=UNCERTAINTY_MEASURE_WITH_UNIT(LENGTH_MEASURE(0.01),#443,
'DISTANCE_ACCURACY_VALUE',
'Maximum model space distance between geometric entities at asserted c
onnectivities');
#440=UNCERTAINTY_MEASURE_WITH_UNIT(LENGTH_MEASURE(0.01),#443,
'DISTANCE_ACCURACY_VALUE',
'Maximum model space distance between geometric entities at asserted c
onnectivities');
#441=(
GEOMETRIC_REPRESENTATION_CONTEXT(3)
GLOBAL_UNCERTAINTY_ASSIGNED_CONTEXT((#439))
GLOBAL_UNIT_ASSIGNED_CONTEXT((#443,#445,#446))
REPRESENTATION_CONTEXT('','3D')
);
#442=(
GEOMETRIC_REPRESENTATION_CONTEXT(3)
GLOBAL_UNCERTAINTY_ASSIGNED_CONTEXT((#440))
GLOBAL_UNIT_ASSIGNED_CONTEXT((#443,#445,#446))
REPRESENTATION_CONTEXT('','3D')
);
#443=(
LENGTH_UNIT()
NAMED_UNIT(*)
SI_UNIT(.MILLI.,.METRE.)
);
#444=(
LENGTH_UNIT()
NAMED_UNIT(*)
SI_UNIT($,.METRE.)
);
#445=(
NAMED_UNIT(*)
PLANE_ANGLE_UNIT()
SI_UNIT($,.RADIAN.)
);
#446=(
NAMED_UNIT(*)
SI_UNIT($,.STERADIAN.)
SOLID_ANGLE_UNIT()
);
#447=SHAPE_DEFINITION_REPRESENTATION(#448,#449);
#448=PRODUCT_DEFINITION_SHAPE('',$,#451);
#449=SHAPE_REPRESENTATION('',(#263),#441);
#450=PRODUCT_DEFINITION_CONTEXT('part definition',#455,'design');
#451=PRODUCT_DEFINITION('2026-09-04-15-32-08-556','Roller',#452,#450);
#452=PRODUCT_DEFINITION_FORMATION('',$,#457);
#453=PRODUCT_RELATED_PRODUCT_CATEGORY('Roller','Roller',(#457));
#454=APPLICATION_PROTOCOL_DEFINITION('international standard',
'automotive_design',2009,#455);
#455=APPLICATION_CONTEXT(
'Core Data for Automotive Mechanical Design Process');
#456=PRODUCT_CONTEXT('part definition',#455,'mechanical');
#457=PRODUCT('2026-09-04-15-32-08-556','Roller',$,(#456));
#458=PRESENTATION_STYLE_ASSIGNMENT((#460));
#459=PRESENTATION_STYLE_ASSIGNMENT((#461));
#460=SURFACE_STYLE_USAGE(.BOTH.,#462);
#461=SURFACE_STYLE_USAGE(.BOTH.,#463);
#462=SURFACE_SIDE_STYLE('',(#464));
#463=SURFACE_SIDE_STYLE('',(#465));
#464=SURFACE_STYLE_FILL_AREA(#466);
#465=SURFACE_STYLE_FILL_AREA(#467);
#466=FILL_AREA_STYLE('Steel - Satin',(#468));
#467=FILL_AREA_STYLE('Paint - Enamel Glossy (White)',(#469));
#468=FILL_AREA_STYLE_COLOUR('Steel - Satin',#470);
#469=FILL_AREA_STYLE_COLOUR('Paint - Enamel Glossy (White)',#471);
#470=COLOUR_RGB('Steel - Satin',0.627450980392157,0.627450980392157,0.627450980392157);
#471=COLOUR_RGB('Paint - Enamel Glossy (White)',0.964705882352941,0.964705882352941,
0.952941176470588);
ENDSEC;
END-ISO-10303-21;
