ISO-10303-21;
HEADER;
/* Generated by software containing ST-Developer
 * from STEP Tools, Inc. (www.steptools.com) 
 */

FILE_DESCRIPTION(
/* description */ (''),
/* implementation_level */ '2;1');

FILE_NAME(
/* name */ 'Servo Arm.step',
/* time_stamp */ '2026-09-06T12:59:17+05:30',
/* author */ (''),
/* organization */ (''),
/* preprocessor_version */ 'ST-DEVELOPER v20.2',
/* originating_system */ 'Autodesk Translation Framework v15.15.0.0',
/* authorisation */ '');

FILE_SCHEMA (('AUTOMOTIVE_DESIGN { 1 0 10303 214 3 1 1 }'));
ENDSEC;

DATA;
#10=MECHANICAL_DESIGN_GEOMETRIC_PRESENTATION_REPRESENTATION('',(#13),#232);
#11=SHAPE_REPRESENTATION_RELATIONSHIP('SRR','None',#239,#12);
#12=ADVANCED_BREP_SHAPE_REPRESENTATION('',(#14),#231);
#13=STYLED_ITEM('',(#249),#14);
#14=MANIFOLD_SOLID_BREP('Body1',#128);
#15=FACE_BOUND('',#36,.T.);
#16=PLANE('',#145);
#17=PLANE('',#146);
#18=PLANE('',#150);
#19=PLANE('',#154);
#20=PLANE('',#155);
#21=FACE_OUTER_BOUND('',#29,.T.);
#22=FACE_OUTER_BOUND('',#30,.T.);
#23=FACE_OUTER_BOUND('',#31,.T.);
#24=FACE_OUTER_BOUND('',#32,.T.);
#25=FACE_OUTER_BOUND('',#33,.T.);
#26=FACE_OUTER_BOUND('',#34,.T.);
#27=FACE_OUTER_BOUND('',#35,.T.);
#28=FACE_OUTER_BOUND('',#37,.T.);
#29=EDGE_LOOP('',(#87,#88,#89,#90));
#30=EDGE_LOOP('',(#91));
#31=EDGE_LOOP('',(#92,#93,#94,#95));
#32=EDGE_LOOP('',(#96,#97,#98,#99));
#33=EDGE_LOOP('',(#100,#101,#102,#103));
#34=EDGE_LOOP('',(#104,#105,#106,#107));
#35=EDGE_LOOP('',(#108,#109,#110,#111));
#36=EDGE_LOOP('',(#112));
#37=EDGE_LOOP('',(#113,#114,#115,#116));
#38=LINE('',#200,#47);
#39=LINE('',#206,#48);
#40=LINE('',#208,#49);
#41=LINE('',#210,#50);
#42=LINE('',#211,#51);
#43=LINE('',#217,#52);
#44=LINE('',#220,#53);
#45=LINE('',#222,#54);
#46=LINE('',#223,#55);
#47=VECTOR('',#162,0.5);
#48=VECTOR('',#169,10.);
#49=VECTOR('',#170,10.);
#50=VECTOR('',#171,10.);
#51=VECTOR('',#172,10.);
#52=VECTOR('',#179,10.);
#53=VECTOR('',#182,10.);
#54=VECTOR('',#183,10.);
#55=VECTOR('',#184,10.);
#56=CIRCLE('',#143,0.5);
#57=CIRCLE('',#144,0.5);
#58=CIRCLE('',#148,3.34942570892089);
#59=CIRCLE('',#149,3.34942570892089);
#60=CIRCLE('',#152,14.4846679613187);
#61=CIRCLE('',#153,14.4846679613187);
#62=VERTEX_POINT('',#197);
#63=VERTEX_POINT('',#199);
#64=VERTEX_POINT('',#204);
#65=VERTEX_POINT('',#205);
#66=VERTEX_POINT('',#207);
#67=VERTEX_POINT('',#209);
#68=VERTEX_POINT('',#213);
#69=VERTEX_POINT('',#215);
#70=VERTEX_POINT('',#219);
#71=VERTEX_POINT('',#221);
#72=EDGE_CURVE('',#62,#62,#56,.T.);
#73=EDGE_CURVE('',#62,#63,#38,.T.);
#74=EDGE_CURVE('',#63,#63,#57,.T.);
#75=EDGE_CURVE('',#64,#65,#39,.T.);
#76=EDGE_CURVE('',#64,#66,#40,.T.);
#77=EDGE_CURVE('',#67,#66,#41,.T.);
#78=EDGE_CURVE('',#65,#67,#42,.T.);
#79=EDGE_CURVE('',#68,#65,#58,.T.);
#80=EDGE_CURVE('',#69,#67,#59,.T.);
#81=EDGE_CURVE('',#68,#69,#43,.T.);
#82=EDGE_CURVE('',#68,#70,#44,.T.);
#83=EDGE_CURVE('',#71,#69,#45,.T.);
#84=EDGE_CURVE('',#70,#71,#46,.T.);
#85=EDGE_CURVE('',#64,#70,#60,.T.);
#86=EDGE_CURVE('',#66,#71,#61,.T.);
#87=ORIENTED_EDGE('',*,*,#72,.F.);
#88=ORIENTED_EDGE('',*,*,#73,.T.);
#89=ORIENTED_EDGE('',*,*,#74,.F.);
#90=ORIENTED_EDGE('',*,*,#73,.F.);
#91=ORIENTED_EDGE('',*,*,#72,.T.);
#92=ORIENTED_EDGE('',*,*,#75,.F.);
#93=ORIENTED_EDGE('',*,*,#76,.T.);
#94=ORIENTED_EDGE('',*,*,#77,.F.);
#95=ORIENTED_EDGE('',*,*,#78,.F.);
#96=ORIENTED_EDGE('',*,*,#79,.T.);
#97=ORIENTED_EDGE('',*,*,#78,.T.);
#98=ORIENTED_EDGE('',*,*,#80,.F.);
#99=ORIENTED_EDGE('',*,*,#81,.F.);
#100=ORIENTED_EDGE('',*,*,#82,.F.);
#101=ORIENTED_EDGE('',*,*,#81,.T.);
#102=ORIENTED_EDGE('',*,*,#83,.F.);
#103=ORIENTED_EDGE('',*,*,#84,.F.);
#104=ORIENTED_EDGE('',*,*,#85,.T.);
#105=ORIENTED_EDGE('',*,*,#84,.T.);
#106=ORIENTED_EDGE('',*,*,#86,.F.);
#107=ORIENTED_EDGE('',*,*,#76,.F.);
#108=ORIENTED_EDGE('',*,*,#86,.T.);
#109=ORIENTED_EDGE('',*,*,#83,.T.);
#110=ORIENTED_EDGE('',*,*,#80,.T.);
#111=ORIENTED_EDGE('',*,*,#77,.T.);
#112=ORIENTED_EDGE('',*,*,#74,.T.);
#113=ORIENTED_EDGE('',*,*,#85,.F.);
#114=ORIENTED_EDGE('',*,*,#75,.T.);
#115=ORIENTED_EDGE('',*,*,#79,.F.);
#116=ORIENTED_EDGE('',*,*,#82,.T.);
#117=CYLINDRICAL_SURFACE('',#142,0.5);
#118=CYLINDRICAL_SURFACE('',#147,3.34942570892089);
#119=CYLINDRICAL_SURFACE('',#151,14.4846679613187);
#120=ADVANCED_FACE('',(#21),#117,.T.);
#121=ADVANCED_FACE('',(#22),#16,.T.);
#122=ADVANCED_FACE('',(#23),#17,.T.);
#123=ADVANCED_FACE('',(#24),#118,.T.);
#124=ADVANCED_FACE('',(#25),#18,.T.);
#125=ADVANCED_FACE('',(#26),#119,.T.);
#126=ADVANCED_FACE('',(#27,#15),#19,.T.);
#127=ADVANCED_FACE('',(#28),#20,.F.);
#128=CLOSED_SHELL('',(#120,#121,#122,#123,#124,#125,#126,#127));
#129=DERIVED_UNIT_ELEMENT(#131,1.);
#130=DERIVED_UNIT_ELEMENT(#234,-3.);
#131=(
MASS_UNIT()
NAMED_UNIT(*)
SI_UNIT(.KILO.,.GRAM.)
);
#132=DERIVED_UNIT((#129,#130));
#133=MEASURE_REPRESENTATION_ITEM('density measure',
POSITIVE_RATIO_MEASURE(7850.),#132);
#134=PROPERTY_DEFINITION_REPRESENTATION(#139,#136);
#135=PROPERTY_DEFINITION_REPRESENTATION(#140,#137);
#136=REPRESENTATION('material name',(#138),#231);
#137=REPRESENTATION('density',(#133),#231);
#138=DESCRIPTIVE_REPRESENTATION_ITEM('Steel','Steel');
#139=PROPERTY_DEFINITION('material property','material name',#241);
#140=PROPERTY_DEFINITION('material property','density of part',#241);
#141=AXIS2_PLACEMENT_3D('',#195,#156,#157);
#142=AXIS2_PLACEMENT_3D('',#196,#158,#159);
#143=AXIS2_PLACEMENT_3D('',#198,#160,#161);
#144=AXIS2_PLACEMENT_3D('',#201,#163,#164);
#145=AXIS2_PLACEMENT_3D('',#202,#165,#166);
#146=AXIS2_PLACEMENT_3D('',#203,#167,#168);
#147=AXIS2_PLACEMENT_3D('',#212,#173,#174);
#148=AXIS2_PLACEMENT_3D('',#214,#175,#176);
#149=AXIS2_PLACEMENT_3D('',#216,#177,#178);
#150=AXIS2_PLACEMENT_3D('',#218,#180,#181);
#151=AXIS2_PLACEMENT_3D('',#224,#185,#186);
#152=AXIS2_PLACEMENT_3D('',#225,#187,#188);
#153=AXIS2_PLACEMENT_3D('',#226,#189,#190);
#154=AXIS2_PLACEMENT_3D('',#227,#191,#192);
#155=AXIS2_PLACEMENT_3D('',#228,#193,#194);
#156=DIRECTION('axis',(0.,0.,1.));
#157=DIRECTION('refdir',(1.,0.,0.));
#158=DIRECTION('center_axis',(0.,0.,1.));
#159=DIRECTION('ref_axis',(-1.,0.,0.));
#160=DIRECTION('center_axis',(0.,0.,1.));
#161=DIRECTION('ref_axis',(-1.,0.,0.));
#162=DIRECTION('',(0.,0.,-1.));
#163=DIRECTION('center_axis',(0.,0.,-1.));
#164=DIRECTION('ref_axis',(-1.,0.,0.));
#165=DIRECTION('center_axis',(0.,0.,1.));
#166=DIRECTION('ref_axis',(-1.,0.,0.));
#167=DIRECTION('center_axis',(0.980580676533908,-0.196116130923244,0.));
#168=DIRECTION('ref_axis',(0.196116130923244,0.980580676533908,0.));
#169=DIRECTION('',(-0.196116130923244,-0.980580676533908,0.));
#170=DIRECTION('',(0.,0.,1.));
#171=DIRECTION('',(0.196116130923244,0.980580676533908,0.));
#172=DIRECTION('',(0.,0.,1.));
#173=DIRECTION('center_axis',(0.,0.,1.));
#174=DIRECTION('ref_axis',(-0.746396644983104,-0.665501351131586,0.));
#175=DIRECTION('center_axis',(0.,0.,1.));
#176=DIRECTION('ref_axis',(-0.746396644983104,-0.665501351131586,0.));
#177=DIRECTION('center_axis',(0.,0.,1.));
#178=DIRECTION('ref_axis',(-0.746396644983104,-0.665501351131586,0.));
#179=DIRECTION('',(0.,0.,1.));
#180=DIRECTION('center_axis',(-0.98058067569092,-0.196116135138184,0.));
#181=DIRECTION('ref_axis',(0.196116135138184,-0.98058067569092,0.));
#182=DIRECTION('',(-0.196116135138184,0.98058067569092,0.));
#183=DIRECTION('',(0.196116135138184,-0.98058067569092,0.));
#184=DIRECTION('',(0.,0.,1.));
#185=DIRECTION('center_axis',(0.,0.,1.));
#186=DIRECTION('ref_axis',(0.862981466567357,0.505235577093749,0.));
#187=DIRECTION('center_axis',(0.,0.,1.));
#188=DIRECTION('ref_axis',(0.862981466567357,0.505235577093749,0.));
#189=DIRECTION('center_axis',(0.,0.,1.));
#190=DIRECTION('ref_axis',(0.862981466567357,0.505235577093749,0.));
#191=DIRECTION('center_axis',(0.,0.,1.));
#192=DIRECTION('ref_axis',(1.,0.,0.));
#193=DIRECTION('center_axis',(0.,0.,1.));
#194=DIRECTION('ref_axis',(1.,0.,0.));
#195=CARTESIAN_POINT('',(0.,0.,0.));
#196=CARTESIAN_POINT('Origin',(12.5000001117587,2.22904733480173,2.));
#197=CARTESIAN_POINT('',(13.0000001117587,2.22904733480173,4.));
#198=CARTESIAN_POINT('Origin',(12.5000001117587,2.22904733480173,4.));
#199=CARTESIAN_POINT('',(13.0000001117587,2.22904733480173,2.));
#200=CARTESIAN_POINT('',(13.0000001117587,2.22904733480173,2.));
#201=CARTESIAN_POINT('Origin',(12.5000001117587,2.22904733480173,2.));
#202=CARTESIAN_POINT('Origin',(12.5000001117587,2.22904733480173,4.));
#203=CARTESIAN_POINT('Origin',(15.0000002235174,0.,0.));
#204=CARTESIAN_POINT('',(25.,50.,0.));
#205=CARTESIAN_POINT('',(15.0000002235174,2.77555756156289E-16,0.));
#206=CARTESIAN_POINT('',(25.,50.,0.));
#207=CARTESIAN_POINT('',(25.,50.,2.));
#208=CARTESIAN_POINT('',(25.,50.,0.));
#209=CARTESIAN_POINT('',(15.0000002235174,0.,2.));
#210=CARTESIAN_POINT('',(25.,50.,2.));
#211=CARTESIAN_POINT('',(15.0000002235174,2.77555756156289E-16,0.));
#212=CARTESIAN_POINT('Origin',(12.5000001117587,2.22904733480173,0.));
#213=CARTESIAN_POINT('',(10.,2.77555756156289E-16,0.));
#214=CARTESIAN_POINT('Origin',(12.5000001117587,2.22904733480173,0.));
#215=CARTESIAN_POINT('',(10.,0.,2.));
#216=CARTESIAN_POINT('Origin',(12.5000001117587,2.22904733480173,2.));
#217=CARTESIAN_POINT('',(10.,2.77555756156289E-16,0.));
#218=CARTESIAN_POINT('Origin',(0.,50.,0.));
#219=CARTESIAN_POINT('',(-1.11022302462516E-15,50.,0.));
#220=CARTESIAN_POINT('',(10.,0.,0.));
#221=CARTESIAN_POINT('',(0.,50.,2.));
#222=CARTESIAN_POINT('',(10.,0.,2.));
#223=CARTESIAN_POINT('',(-1.11022302462516E-15,50.,0.));
#224=CARTESIAN_POINT('Origin',(12.5,42.6818304235518,0.));
#225=CARTESIAN_POINT('Origin',(12.5,42.6818304235518,0.));
#226=CARTESIAN_POINT('Origin',(12.5,42.6818304235518,2.));
#227=CARTESIAN_POINT('Origin',(12.5,28.0230600053757,2.));
#228=CARTESIAN_POINT('Origin',(12.5,28.0230600053757,0.));
#229=UNCERTAINTY_MEASURE_WITH_UNIT(LENGTH_MEASURE(0.01),#233,
'DISTANCE_ACCURACY_VALUE',
'Maximum model space distance between geometric entities at asserted c
onnectivities');
#230=UNCERTAINTY_MEASURE_WITH_UNIT(LENGTH_MEASURE(0.01),#233,
'DISTANCE_ACCURACY_VALUE',
'Maximum model space distance between geometric entities at asserted c
onnectivities');
#231=(
GEOMETRIC_REPRESENTATION_CONTEXT(3)
GLOBAL_UNCERTAINTY_ASSIGNED_CONTEXT((#229))
GLOBAL_UNIT_ASSIGNED_CONTEXT((#233,#235,#236))
REPRESENTATION_CONTEXT('','3D')
);
#232=(
GEOMETRIC_REPRESENTATION_CONTEXT(3)
GLOBAL_UNCERTAINTY_ASSIGNED_CONTEXT((#230))
GLOBAL_UNIT_ASSIGNED_CONTEXT((#233,#235,#236))
REPRESENTATION_CONTEXT('','3D')
);
#233=(
LENGTH_UNIT()
NAMED_UNIT(*)
SI_UNIT(.MILLI.,.METRE.)
);
#234=(
LENGTH_UNIT()
NAMED_UNIT(*)
SI_UNIT($,.METRE.)
);
#235=(
NAMED_UNIT(*)
PLANE_ANGLE_UNIT()
SI_UNIT($,.RADIAN.)
);
#236=(
NAMED_UNIT(*)
SI_UNIT($,.STERADIAN.)
SOLID_ANGLE_UNIT()
);
#237=SHAPE_DEFINITION_REPRESENTATION(#238,#239);
#238=PRODUCT_DEFINITION_SHAPE('',$,#241);
#239=SHAPE_REPRESENTATION('',(#141),#231);
#240=PRODUCT_DEFINITION_CONTEXT('part definition',#245,'design');
#241=PRODUCT_DEFINITION('2026-09-05-13-56-23-500','Servo Arm',#242,#240);
#242=PRODUCT_DEFINITION_FORMATION('',$,#247);
#243=PRODUCT_RELATED_PRODUCT_CATEGORY('Servo Arm','Servo Arm',(#247));
#244=APPLICATION_PROTOCOL_DEFINITION('international standard',
'automotive_design',2009,#245);
#245=APPLICATION_CONTEXT(
'Core Data for Automotive Mechanical Design Process');
#246=PRODUCT_CONTEXT('part definition',#245,'mechanical');
#247=PRODUCT('2026-09-05-13-56-23-500','Servo Arm',$,(#246));
#248=PRESENTATION_STYLE_ASSIGNMENT((#250));
#249=PRESENTATION_STYLE_ASSIGNMENT((#251));
#250=SURFACE_STYLE_USAGE(.BOTH.,#252);
#251=SURFACE_STYLE_USAGE(.BOTH.,#253);
#252=SURFACE_SIDE_STYLE('',(#254));
#253=SURFACE_SIDE_STYLE('',(#255));
#254=SURFACE_STYLE_FILL_AREA(#256);
#255=SURFACE_STYLE_FILL_AREA(#257);
#256=FILL_AREA_STYLE('Steel - Satin',(#258));
#257=FILL_AREA_STYLE('Paint - Metallic (Red)',(#259));
#258=FILL_AREA_STYLE_COLOUR('Steel - Satin',#260);
#259=FILL_AREA_STYLE_COLOUR('Paint - Metallic (Red)',#261);
#260=COLOUR_RGB('Steel - Satin',0.627450980392157,0.627450980392157,0.627450980392157);
#261=COLOUR_RGB('Paint - Metallic (Red)',0.768627450980392,0.207843137254902,
0.152941176470588);
ENDSEC;
END-ISO-10303-21;
